<svg width="131" height="40" viewBox="0 0 131 40" fill="none" xmlns="http://www.w3.org/2000/svg">
<path d="M39.4563 9.51426C38.8884 9.1081 38.2709 8.77624 37.6188 8.52676C36.4267 8.1144 35.165 7.94134 33.9058 8.01749C32.6467 8.09363 31.415 8.4175 30.2813 8.97051L30.0626 9.07051L7.38131 19.4143C7.26133 19.47 7.12877 19.4929 6.99705 19.4809C6.86533 19.4688 6.73915 19.4221 6.63131 19.3455L2.60631 16.433C2.39312 16.2793 2.13906 16.1925 1.87641 16.1836C1.61377 16.1747 1.35441 16.2441 1.13131 16.383L0.268806 16.9205C0.1497 16.9934 0.0623689 17.1084 0.024159 17.2428C-0.014051 17.3771 -0.000344508 17.5208 0.0625561 17.6455L3.25631 23.4768C3.25631 23.4768 6.03131 28.4205 20.3876 20.583L17.9938 33.708L20.6251 32.6268L28.4001 17.0455C28.4001 17.0455 35.4251 14.0018 39.4751 11.2518C39.6344 11.1684 39.7676 11.0426 39.8599 10.8883C39.9523 10.734 40.0001 10.5571 39.9981 10.3773C39.9962 10.1974 39.9446 10.0217 39.8489 9.86935C39.7533 9.71704 39.6174 9.59415 39.4563 9.51426ZM31.2501 9.93926C32.0807 9.52854 32.9846 9.28667 33.9094 9.22766C34.8341 9.16866 35.7614 9.29369 36.6376 9.59551C36.6376 9.59551 33.1751 12.1768 31.2501 9.93926Z" fill="white"/>
<path d="M15.1375 14.8768L21.65 11.9143H21.6438L9.55 8.35181L7.5 9.59556L15.1312 14.8768H15.1375Z" fill="white"/>
<path d="M51.7699 30V9.63636H56.0753V26.4503H64.8054V30H51.7699ZM85.5767 19.8182C85.5767 22.0388 85.1558 23.928 84.3139 25.4858C83.4787 27.0436 82.3385 28.2334 80.8935 29.0554C79.455 29.8707 77.8376 30.2784 76.0412 30.2784C74.2315 30.2784 72.6075 29.8674 71.169 29.0455C69.7306 28.2235 68.5938 27.0336 67.7585 25.4759C66.9233 23.9181 66.5057 22.0322 66.5057 19.8182C66.5057 17.5975 66.9233 15.7083 67.7585 14.1506C68.5938 12.5928 69.7306 11.4062 71.169 10.5909C72.6075 9.76894 74.2315 9.35795 76.0412 9.35795C77.8376 9.35795 79.455 9.76894 80.8935 10.5909C82.3385 11.4062 83.4787 12.5928 84.3139 14.1506C85.1558 15.7083 85.5767 17.5975 85.5767 19.8182ZM81.2116 19.8182C81.2116 18.3797 80.9962 17.1667 80.5653 16.179C80.1411 15.1913 79.5412 14.4422 78.7656 13.9318C77.9901 13.4214 77.0819 13.1662 76.0412 13.1662C75.0005 13.1662 74.0923 13.4214 73.3168 13.9318C72.5412 14.4422 71.938 15.1913 71.5071 16.179C71.0829 17.1667 70.8707 18.3797 70.8707 19.8182C70.8707 21.2566 71.0829 22.4697 71.5071 23.4574C71.938 24.4451 72.5412 25.1941 73.3168 25.7045C74.0923 26.215 75.0005 26.4702 76.0412 26.4702C77.0819 26.4702 77.9901 26.215 78.7656 25.7045C79.5412 25.1941 80.1411 24.4451 80.5653 23.4574C80.9962 22.4697 81.2116 21.2566 81.2116 19.8182ZM102.269 16.2188C102.13 15.7348 101.934 15.3073 101.682 14.9361C101.43 14.5582 101.122 14.2401 100.757 13.9815C100.4 13.7164 99.9885 13.5142 99.5245 13.375C99.0671 13.2358 98.56 13.1662 98.0032 13.1662C96.9625 13.1662 96.0477 13.4247 95.2589 13.9418C94.4767 14.4588 93.8668 15.2112 93.4293 16.1989C92.9918 17.1799 92.7731 18.3797 92.7731 19.7983C92.7731 21.2169 92.9885 22.4233 93.4194 23.4176C93.8503 24.4119 94.4601 25.1709 95.2489 25.6946C96.0378 26.2116 96.9691 26.4702 98.043 26.4702C99.0174 26.4702 99.8493 26.2978 100.539 25.9531C101.235 25.6018 101.765 25.108 102.13 24.4716C102.501 23.8352 102.686 23.0829 102.686 22.2145L103.561 22.3438H98.3114V19.1023H106.833V21.6676C106.833 23.4574 106.455 24.9953 105.699 26.2812C104.944 27.5606 103.903 28.5483 102.577 29.2443C101.251 29.9337 99.7333 30.2784 98.0231 30.2784C96.114 30.2784 94.4369 29.8575 92.9918 29.0156C91.5468 28.1671 90.4199 26.964 89.6112 25.4062C88.8091 23.8419 88.408 21.9858 88.408 19.8381C88.408 18.1875 88.6467 16.7159 89.1239 15.4233C89.6078 14.1241 90.284 13.0237 91.1523 12.1222C92.0207 11.2206 93.0316 10.5346 94.185 10.0639C95.3384 9.59328 96.5879 9.35795 97.9336 9.35795C99.087 9.35795 100.161 9.52699 101.155 9.86506C102.15 10.1965 103.031 10.6671 103.8 11.277C104.576 11.8868 105.209 12.6127 105.699 13.4545C106.19 14.2898 106.505 15.2112 106.644 16.2188H102.269ZM128.78 19.8182C128.78 22.0388 128.359 23.928 127.517 25.4858C126.682 27.0436 125.542 28.2334 124.097 29.0554C122.658 29.8707 121.041 30.2784 119.244 30.2784C117.435 30.2784 115.811 29.8674 114.372 29.0455C112.934 28.2235 111.797 27.0336 110.962 25.4759C110.126 23.9181 109.709 22.0322 109.709 19.8182C109.709 17.5975 110.126 15.7083 110.962 14.1506C111.797 12.5928 112.934 11.4062 114.372 10.5909C115.811 9.76894 117.435 9.35795 119.244 9.35795C121.041 9.35795 122.658 9.76894 124.097 10.5909C125.542 11.4062 126.682 12.5928 127.517 14.1506C128.359 15.7083 128.78 17.5975 128.78 19.8182ZM124.415 19.8182C124.415 18.3797 124.199 17.1667 123.768 16.179C123.344 15.1913 122.744 14.4422 121.969 13.9318C121.193 13.4214 120.285 13.1662 119.244 13.1662C118.204 13.1662 117.295 13.4214 116.52 13.9318C115.744 14.4422 115.141 15.1913 114.71 16.179C114.286 17.1667 114.074 18.3797 114.074 19.8182C114.074 21.2566 114.286 22.4697 114.71 23.4574C115.141 24.4451 115.744 25.1941 116.52 25.7045C117.295 26.215 118.204 26.4702 119.244 26.4702C120.285 26.4702 121.193 26.215 121.969 25.7045C122.744 25.1941 123.344 24.4451 123.768 23.4574C124.199 22.4697 124.415 21.2566 124.415 19.8182Z" fill="white"/>
</svg>
