<svg width="24" height="24" viewBox="0 0 24 24" fill="none" xmlns="http://www.w3.org/2000/svg">
<path d="M11.5 5.5C11.2348 5.50001 10.9804 5.60538 10.7929 5.79292C10.6054 5.98046 10.5 6.23481 10.5 6.50003V12.5C10.5 12.7652 10.6054 13.0196 10.7929 13.2071C10.9804 13.3946 11.2348 13.5 11.5 13.5H16C16.1319 13.5009 16.2627 13.4757 16.3848 13.4259C16.5069 13.376 16.6179 13.3025 16.7115 13.2096C16.8051 13.1166 16.8794 13.0061 16.9301 12.8843C16.9808 12.7625 17.0069 12.6319 17.0069 12.5C17.0069 12.3681 16.9808 12.2375 16.9301 12.1157C16.8794 11.994 16.8051 11.8834 16.7115 11.7905C16.6179 11.6975 16.5069 11.624 16.3848 11.5741C16.2627 11.5243 16.1319 11.4991 16 11.5H12.5V6.50003C12.5 6.23481 12.3946 5.98046 12.2071 5.79292C12.0196 5.60538 11.7652 5.50001 11.5 5.5Z" fill="#FFE2A0"/>
<path d="M19.7784 4.22192C15.4893 -0.0671387 8.51073 -0.0671387 4.22167 4.22192C4.03491 4.4096 3.93021 4.66369 3.93054 4.92845C3.93086 5.19322 4.03619 5.44704 4.22341 5.63426C4.41063 5.82147 4.66446 5.92679 4.92923 5.92711C5.19399 5.92743 5.44807 5.82272 5.63574 5.63595C9.14453 2.12671 14.8545 2.12671 18.3643 5.63595C21.8731 9.14502 21.8731 14.855 18.3643 18.364C15.2694 21.4582 10.4344 21.8129 6.91998 19.4156L7.81253 19.1181C8.06414 19.0342 8.27212 18.8537 8.3907 18.6165C8.50929 18.3792 8.52876 18.1046 8.44485 17.853C8.36093 17.6013 8.1805 17.3934 7.94324 17.2748C7.70598 17.1562 7.43133 17.1367 7.17971 17.2206L4.58753 18.0849C4.35951 18.161 4.16652 18.3166 4.04386 18.5233C3.9212 18.7301 3.87708 18.974 3.91956 19.2106L4.45313 22.177C4.49469 22.4076 4.61589 22.6164 4.79561 22.7668C4.97532 22.9173 5.20215 22.9999 5.43653 23.0002C5.49626 23.0001 5.55587 22.9947 5.61465 22.9841C5.87567 22.9372 6.10734 22.7885 6.25873 22.5707C6.41011 22.353 6.4688 22.084 6.42188 21.823L6.34998 21.4232C8.4523 22.682 10.9144 23.2037 13.3466 22.9057C15.7788 22.6077 18.0421 21.5071 19.7784 19.7779C24.0669 15.4893 24.0669 8.5107 19.7784 4.22192Z" fill="#FFE2A0"/>
<path d="M3.43801 6.73595C3.31996 6.67836 3.19171 6.6446 3.0606 6.63662C2.9295 6.62863 2.7981 6.64656 2.67393 6.6894C2.54977 6.73223 2.43526 6.79913 2.33696 6.88625C2.23867 6.97338 2.15852 7.07903 2.10108 7.19716C2.02005 7.36312 1.94388 7.53059 1.87257 7.69956C1.8205 7.82056 1.79285 7.95066 1.79121 8.08238C1.78957 8.2141 1.81397 8.34485 1.86302 8.46711C1.91207 8.58936 1.98479 8.70073 2.07701 8.79479C2.16923 8.88886 2.27912 8.96378 2.40038 9.01524C2.52164 9.06671 2.65188 9.0937 2.78361 9.09468C2.91533 9.09566 3.04595 9.0706 3.16796 9.02094C3.28998 8.97128 3.40097 8.898 3.49457 8.80531C3.58818 8.71262 3.66254 8.60235 3.7134 8.48083C3.77194 8.34329 3.8338 8.20719 3.89893 8.07264C3.95644 7.95461 3.99015 7.82641 3.99811 7.69535C4.00607 7.56429 3.98814 7.43295 3.94534 7.30882C3.90254 7.1847 3.83571 7.07022 3.74866 6.97192C3.66161 6.87363 3.55605 6.79345 3.43801 6.73595ZM2.00344 12.7539C2.26412 12.7539 2.51445 12.652 2.70108 12.47C2.8877 12.288 2.99584 12.0403 3.00244 11.7797C3.00732 11.591 3.0179 11.4022 3.03418 11.2133C3.0455 11.0825 3.03094 10.9507 2.99134 10.8256C2.95174 10.7004 2.88788 10.5842 2.80338 10.4837C2.71889 10.3832 2.61543 10.3003 2.49891 10.2398C2.3824 10.1793 2.2551 10.1423 2.12429 10.131C1.99348 10.1197 1.86172 10.1343 1.73654 10.1739C1.61135 10.2134 1.4952 10.2773 1.39469 10.3618C1.29419 10.4463 1.21132 10.5498 1.1508 10.6663C1.09029 10.7828 1.05331 10.9101 1.04199 11.0409C1.02199 11.2697 1.00913 11.4989 1.00341 11.7284C0.996599 11.9935 1.09534 12.2504 1.27792 12.4427C1.46051 12.635 1.71198 12.7469 1.97705 12.7538C1.98587 12.7539 1.99463 12.7539 2.00344 12.7539ZM3.3721 14.5688C3.33511 14.4422 3.27346 14.3243 3.19071 14.2217C3.10796 14.1191 3.00574 14.0338 2.88992 13.9709C2.77411 13.9079 2.64699 13.8685 2.51588 13.8548C2.38477 13.8412 2.25226 13.8536 2.12596 13.8913C1.99967 13.9291 1.88208 13.9915 1.77997 14.0748C1.67786 14.1582 1.59324 14.2609 1.53098 14.3771C1.46872 14.4933 1.43005 14.6206 1.41718 14.7518C1.40432 14.883 1.41753 15.0155 1.45604 15.1415C1.50838 15.3173 1.56505 15.4917 1.62601 15.6647C1.66958 15.7886 1.73712 15.9027 1.82478 16.0005C1.91244 16.0982 2.01851 16.1778 2.13692 16.2346C2.25532 16.2914 2.38376 16.3243 2.51488 16.3314C2.64601 16.3386 2.77726 16.3198 2.90115 16.2763C3.02503 16.2327 3.13912 16.1652 3.2369 16.0775C3.33468 15.9898 3.41424 15.8838 3.47103 15.7654C3.52782 15.647 3.56073 15.5185 3.56788 15.3874C3.57504 15.2563 3.5563 15.125 3.51273 15.0011C3.46241 14.8579 3.41554 14.7138 3.3721 14.5688Z" fill="#FFE2A0"/>
</svg>
