<svg width="24" height="24" viewBox="0 0 24 24" fill="none" xmlns="http://www.w3.org/2000/svg">
<path d="M17.784 5.06562H15.8416V2.49522C15.8808 0.79762 13.9288 -0.35758 12.4576 0.47922L3.8336 5.13842C3.74314 5.19546 3.66749 5.27312 3.61284 5.36503C3.55819 5.45695 3.5261 5.56051 3.5192 5.66722V21.1072C3.52152 21.8213 3.80655 22.5054 4.31193 23.0099C4.81731 23.5144 5.50191 23.7982 6.216 23.7992H17.7872C18.5018 23.7977 19.1866 23.5131 19.6916 23.0076C20.1967 22.5021 20.4808 21.817 20.4816 21.1024V7.76322C20.4803 7.04816 20.1957 6.36275 19.6901 5.85713C19.1845 5.35151 18.4991 5.06689 17.784 5.06562ZM13.028 1.53282C13.732 1.13122 14.6584 1.68882 14.6416 2.49522V5.06562H6.4912L13.028 1.53282ZM19.2816 21.1024C19.281 21.4993 19.123 21.8798 18.8422 22.1604C18.5615 22.441 18.1809 22.5988 17.784 22.5992H6.216C5.81957 22.5982 5.43971 22.44 5.15962 22.1595C4.87952 21.879 4.72202 21.4989 4.7216 21.1024V6.26562H17.7872C18.1837 6.26689 18.5636 6.42518 18.8436 6.70585C19.1237 6.98652 19.2812 7.36672 19.2816 7.76322V21.1024Z" fill="#FFE2A0"/>
<path d="M9.79759 9.20964C6.10959 11.2976 7.25119 17.008 11.4824 17.4736C14.4328 17.9256 17.1376 14.9104 16.3128 12.0256C15.7424 9.22004 12.2304 7.69524 9.79759 9.20964ZM11.8456 9.82164C11.9537 9.8083 12.0631 9.80857 12.1712 9.82244C12.7231 10.5964 13.0402 11.5129 13.0848 12.4624L10.9312 12.4616C10.9754 11.5119 11.2929 10.5952 11.8456 9.82164ZM8.91999 14.0904C8.8736 13.9503 8.8375 13.807 8.81199 13.6616H9.72399C9.76879 14.3712 9.91599 15.0696 10.1616 15.7368C9.57914 15.3382 9.14309 14.76 8.91999 14.0904ZM9.72479 12.4608L8.81119 12.4616C8.97839 11.6352 9.45119 10.8568 10.1664 10.3952C9.91999 11.0592 9.77119 11.7552 9.72479 12.4608ZM12.1912 16.2984C12.0664 16.3128 11.948 16.3144 11.8248 16.2984C11.2767 15.5237 10.9649 14.6067 10.9272 13.6584H13.0872C13.0498 14.6065 12.7386 15.5235 12.1912 16.2984ZM15.0816 14.0968C14.858 14.7598 14.4265 15.333 13.8512 15.7312C14.0952 15.066 14.2415 14.3689 14.2856 13.6616H15.1896C15.1642 13.8091 15.1281 13.9546 15.0816 14.0968ZM14.2864 12.4632C14.2405 11.7576 14.0923 11.0623 13.8464 10.3992C14.5488 10.8696 15.028 11.64 15.192 12.4648L14.2864 12.4632ZM15.1336 19.0536H8.86959C8.08719 19.0568 8.08319 20.2504 8.86959 20.2536H15.1336C15.916 20.2512 15.9192 19.0576 15.1336 19.0536Z" fill="#FFE2A0"/>
</svg>
