<svg width="24" height="24" viewBox="0 0 24 24" fill="none" xmlns="http://www.w3.org/2000/svg">
<path d="M22.1353 7.71801C21.0182 5.08097 18.9191 2.98187 16.282 1.86473C14.9266 1.29392 13.4707 0.999878 12 0.999878C10.5293 0.999878 9.0734 1.29392 7.71796 1.86473C5.08092 2.98187 2.98183 5.08097 1.86468 7.71801C1.29388 9.07344 0.999832 10.5293 0.999832 12C0.999832 13.4708 1.29388 14.9266 1.86468 16.2821C2.98183 18.9191 5.08092 21.0182 7.71796 22.1354C9.0734 22.7062 10.5293 23.0002 12 23.0002C13.4707 23.0002 14.9266 22.7062 16.282 22.1354C18.9191 21.0182 21.0182 18.9191 22.1353 16.2821C22.7061 14.9266 23.0002 13.4708 23.0002 12C23.0002 10.5293 22.7061 9.07344 22.1353 7.71801ZM12 21C7.03734 21 3 16.9627 3 12C3 7.03739 7.03734 3.00004 12 3.00004C16.9627 3.00004 21 7.03739 21 12C21 16.9627 16.9627 21 12 21Z" fill="#FFE2A0"/>
<path d="M12.9998 11.5857V6.00009C12.9998 5.73491 12.8945 5.4806 12.707 5.29309C12.5195 5.10558 12.2652 5.00024 12 5.00024C11.7348 5.00024 11.4805 5.10558 11.293 5.29309C11.1055 5.4806 11.0002 5.73491 11.0002 6.00009V12.0001C11.0001 12.1314 11.0259 12.2614 11.0762 12.3827C11.1264 12.504 11.2002 12.6142 11.2931 12.707L14.2931 15.707C14.3859 15.8003 14.4961 15.8744 14.6176 15.9251C14.739 15.9757 14.8693 16.0019 15.0009 16.0021C15.1325 16.0023 15.2628 15.9765 15.3844 15.9263C15.506 15.876 15.6165 15.8022 15.7095 15.7091C15.8025 15.6161 15.8763 15.5056 15.9265 15.3839C15.9768 15.2623 16.0025 15.132 16.0022 15.0004C16.002 14.8688 15.9758 14.7386 15.9251 14.6171C15.8744 14.4957 15.8002 14.3855 15.7069 14.2927L12.9998 11.5857Z" fill="#FFE2A0"/>
</svg>
