<svg width="24" height="24" viewBox="0 0 24 24" fill="none" xmlns="http://www.w3.org/2000/svg">
<path d="M10.4986 18.5608C10.8406 19.0172 11.3858 19.3125 12 19.3125C12.6142 19.3125 13.1594 19.0172 13.5014 18.5608L18.005 12.9261C18.9435 11.6737 19.5 10.1193 19.5 8.4375C19.5 4.30205 16.1355 0.9375 12 0.9375C7.86455 0.9375 4.5 4.30205 4.5 8.4375C4.5 10.1193 5.0565 11.6737 5.99498 12.9261L10.4986 18.5608Z" stroke="black" stroke-width="1.5" stroke-miterlimit="10" stroke-linecap="round" stroke-linejoin="round"/>
<path d="M12 12.1875C14.0711 12.1875 15.75 10.5086 15.75 8.4375C15.75 6.36643 14.0711 4.6875 12 4.6875C9.92893 4.6875 8.25 6.36643 8.25 8.4375C8.25 10.5086 9.92893 12.1875 12 12.1875Z" stroke="black" stroke-width="1.5" stroke-miterlimit="10" stroke-linecap="round" stroke-linejoin="round"/>
<path d="M18.8063 17.7352C19.2515 18.2147 19.5 18.7491 19.5 19.3125C19.5 21.3836 16.1422 23.0625 12 23.0625C7.85784 23.0625 4.5 21.3836 4.5 19.3125C4.5 18.7491 4.74848 18.2147 5.1937 17.7352" stroke="black" stroke-width="1.5" stroke-miterlimit="10" stroke-linecap="round" stroke-linejoin="round"/>
</svg>
