<svg width="32" height="26" viewBox="0 0 32 26" fill="none" xmlns="http://www.w3.org/2000/svg">
<rect width="32" height="26" fill="white"/>
<path d="M12.5312 23.5625H11.2002C11.0665 23.5625 10.9349 23.5284 10.8175 23.4633C10.7001 23.3983 10.6006 23.3044 10.5281 23.1903C10.4556 23.0761 10.4125 22.9453 10.4027 22.8098C10.3928 22.6744 10.4166 22.5386 10.4717 22.4148L13.6947 15.1912L8.85522 15.082L7.09022 17.2539C6.75372 17.6836 6.48522 17.875 5.80022 17.875H4.90422C4.76235 17.8796 4.62148 17.8495 4.49353 17.7871C4.36559 17.7247 4.25434 17.6318 4.16922 17.5165C4.05022 17.3535 3.93322 17.0772 4.04722 16.6832L5.03822 13.0777C5.04572 13.0508 5.05472 13.0239 5.06472 12.9975C5.06522 12.9949 5.06522 12.9924 5.06472 12.9898C5.05439 12.9635 5.04555 12.9365 5.03822 12.9091L4.04622 9.28078C3.93872 8.89434 4.05622 8.62418 4.17422 8.46523C4.25346 8.35845 4.35626 8.27204 4.47436 8.21295C4.59246 8.15386 4.72257 8.12373 4.85422 8.125H5.80022C6.31172 8.125 6.80822 8.35809 7.10022 8.73438L8.82872 10.8697L13.6947 10.7966L10.4727 3.58566C10.4175 3.46199 10.3936 3.32622 10.4034 3.19077C10.4131 3.05532 10.4562 2.92452 10.5285 2.81031C10.6009 2.69611 10.7003 2.60215 10.8176 2.53702C10.935 2.47189 11.0665 2.43768 11.2002 2.4375H12.5457C12.7334 2.44133 12.9179 2.48806 13.0854 2.57421C13.2529 2.66037 13.3991 2.78374 13.5132 2.93516L19.7657 10.6539L22.6542 10.5767C22.8657 10.565 23.4517 10.561 23.5872 10.561C26.3502 10.5625 28.0002 11.4735 28.0002 13C28.0002 13.4804 27.8112 14.3711 26.5467 14.9378C25.8002 15.273 24.8042 15.4426 23.5862 15.4426C23.4522 15.4426 22.8677 15.4385 22.6532 15.4268L19.7652 15.3486L13.4972 23.0674C13.383 23.2181 13.2369 23.3409 13.0697 23.4266C12.9025 23.5123 12.7185 23.5587 12.5312 23.5625Z" fill="#7EB8C4"/>
</svg>
