<svg width="26" height="26" viewBox="0 0 26 26" fill="none" xmlns="http://www.w3.org/2000/svg">
<g clip-path="url(#clip0_1_63)">
<path d="M4.76859 4.45447C4.2655 4.45447 3.8562 4.86377 3.8562 5.36691C3.8562 5.87 4.2655 6.27931 4.76859 6.27931C5.27174 6.27931 5.68104 5.87 5.68104 5.36691C5.68104 4.86377 5.27174 4.45447 4.76859 4.45447Z" fill="black"/>
<path d="M18.7261 24.3169C19.146 23.3042 18.6655 22.1429 17.6528 21.7231C16.6402 21.3032 15.4789 21.7838 15.0591 22.7964C14.6392 23.8091 15.1197 24.9704 16.1323 25.3902C17.145 25.8101 18.3062 25.3295 18.7261 24.3169Z" fill="black"/>
<path d="M13.3315 23.5513C13.3315 23.3466 13.3499 23.1463 13.3833 22.951H3.09489C2.2592 22.951 1.57928 22.2711 1.57928 21.4354C1.57928 20.5996 2.2592 19.9197 3.09489 19.9197H10.1874C11.8 19.9197 13.112 18.6077 13.112 16.9951C13.112 15.3825 11.8 14.0706 10.1874 14.0706H7.06414L6.12648 15.6382H10.1874C10.9356 15.6382 11.5443 16.2469 11.5443 16.9951C11.5443 17.7434 10.9356 18.3521 10.1874 18.3521H3.09489C1.39479 18.3521 0.0116161 19.7353 0.0116161 21.4354C0.0116161 23.1355 1.39479 24.5186 3.09489 24.5186H13.4665C13.377 24.204 13.3316 23.8784 13.3315 23.5513ZM25.9994 12.7015C25.9933 12.5504 25.9436 12.4042 25.8563 12.2806C25.769 12.1571 25.6478 12.0614 25.5073 12.0052L17.1756 8.67255C17.0567 8.625 16.9279 8.60732 16.8006 8.62105C16.6732 8.63478 16.5512 8.67951 16.4451 8.75131C16.3391 8.82312 16.2522 8.91982 16.1922 9.03296C16.1321 9.14609 16.1007 9.27222 16.1007 9.4003V20.0869C16.3577 20.0285 16.6204 19.999 16.884 19.9988C17.1479 19.999 17.411 20.0286 17.6683 20.0871V17.3545L25.5646 13.435C25.7002 13.3678 25.8133 13.2627 25.8905 13.1326C25.9676 13.0024 26.0054 12.8527 25.9994 12.7015ZM9.61283 5.27016C9.61283 2.61566 7.46091 0.463745 4.80641 0.463745C2.15191 0.463745 0 2.61566 0 5.27016V5.29009C0 6.24956 0.25672 7.19153 0.74353 8.01835L4.40112 14.2303C4.56669 14.5115 4.97289 14.5129 5.14039 14.2328L8.85032 8.03027C9.34931 7.19607 9.61283 6.24221 9.61283 5.27016ZM4.76862 7.84695C3.40112 7.84695 2.28857 6.73439 2.28857 5.36689C2.28857 3.99939 3.40112 2.88684 4.76862 2.88684C6.13612 2.88684 7.24868 3.99939 7.24868 5.36689C7.24868 6.73444 6.13612 7.84695 4.76862 7.84695Z" fill="black"/>
</g>
<defs>
<clipPath id="clip0_1_63">
<rect width="26" height="26" fill="white"/>
</clipPath>
</defs>
</svg>
