<svg width="18" height="18" viewBox="0 0 18 18" fill="none" xmlns="http://www.w3.org/2000/svg">
<path d="M7.275 8.47502C6.975 8.17502 6.525 8.17502 6.225 8.47502C5.925 8.77502 5.925 9.22502 6.225 9.52502L8.475 11.775C8.625 11.925 8.775 12 9 12C9.225 12 9.375 11.925 9.525 11.775L14.775 5.77502C15 5.40002 15 4.95002 14.625 4.72502C14.325 4.50002 13.875 4.50002 13.65 4.80002L9 10.125L7.275 8.47502Z" fill="#02BC7D"/>
<path d="M15.75 8.25C15.3 8.25 15 8.55 15 9C15 12.3 12.3 15 9 15C5.7 15 3 12.3 3 9C3 7.425 3.6 5.925 4.725 4.8C5.85 3.6 7.35 3 9 3C9.45 3 9.975 3.075 10.425 3.15C10.8 3.3 11.25 3.075 11.4 2.625C11.55 2.175 11.25 1.875 10.875 1.725H10.8C10.2 1.575 9.6 1.5 9 1.5C4.875 1.5 1.5 4.875 1.5 9.075C1.5 11.025 2.325 12.975 3.675 14.325C5.1 15.75 6.975 16.5 8.925 16.5C13.05 16.5 16.425 13.125 16.425 9C16.5 8.55 16.125 8.25 15.75 8.25Z" fill="#02BC7D"/>
</svg>
