<svg width="58" height="16" viewBox="0 0 58 16" fill="none" xmlns="http://www.w3.org/2000/svg">
<g clip-path="url(#clip0_1_93)">
<path d="M46.7193 0.970215C45.4258 0.970215 44.376 2.02 44.376 3.3135C44.376 4.607 45.4258 5.65678 46.7193 5.65678C48.0128 5.65678 49.0625 4.607 49.0625 3.3135C49.0625 2.02 48.0128 0.970215 46.7193 0.970215Z" fill="#FEDB41"/>
<path d="M49.063 3.3135C49.063 4.607 48.0132 5.65678 46.7197 5.65678V0.970215C48.0132 0.970215 49.063 2.02 49.063 3.3135Z" fill="#FCBF29"/>
<path d="M51.331 14.3082L47.9004 8.97487C47.638 8.57184 47.1787 8.375 46.7194 8.375C46.2602 8.375 45.8009 8.57187 45.5384 8.97487L42.0766 14.3082C41.9828 14.4488 41.9735 14.6362 42.0578 14.7862C42.1422 14.9362 42.3015 15.0299 42.4702 15.0299H50.9372C51.106 15.0299 51.2653 14.9362 51.3497 14.7862C51.4341 14.6362 51.4247 14.4488 51.331 14.3082Z" fill="#C4D55F"/>
<path d="M57.9425 14.7862C57.8581 14.9361 57.6988 15.0299 57.5301 15.0299H46.7197L47.2446 9.18107L48.0695 7.88757L50.0566 8.91857L50.5252 8.01873L50.9376 8.00001L51.3313 7.98123L51.9311 8.93732L53.8339 7.92501L57.9237 14.3081C58.0175 14.4582 58.0269 14.6362 57.9425 14.7862Z" fill="#10BB67"/>
<path d="M57.9421 14.7862C57.8577 14.9361 57.6984 15.0299 57.5297 15.0299H50.9373V8.00005L51.3309 7.98127L51.9308 8.93736L53.8335 7.92505L57.9233 14.3081C58.0171 14.4581 58.0265 14.6362 57.9421 14.7862Z" fill="#0B8878"/>
<path d="M51.3501 14.7863C51.2657 14.9362 51.1064 15.0299 50.9377 15.0299H46.7197V8.375C47.179 8.375 47.6383 8.57187 47.9007 8.97487L51.3313 14.3082C51.4251 14.4488 51.4344 14.6363 51.3501 14.7863Z" fill="#98CB51"/>
<path d="M53.8335 7.92501L52.3807 10.0902C52.3057 10.2402 52.1557 10.3339 51.987 10.3433C51.8277 10.3527 51.659 10.2683 51.5746 10.1277L50.9372 9.18104L50.5061 10.0902C50.4311 10.2402 50.2811 10.3339 50.1124 10.3433H50.0937C49.9343 10.3433 49.7844 10.2589 49.6906 10.1183L48.0691 7.88751L49.7468 5.24429C50.0093 4.83188 50.4686 4.63501 50.9372 4.63501C51.4059 4.63501 51.8652 4.83188 52.1277 5.24429L53.8335 7.92501Z" fill="#E5E5E5"/>
<path d="M53.8335 7.9251L52.3807 10.0903C52.3057 10.2403 52.1557 10.334 51.987 10.3434C51.8277 10.3528 51.659 10.2684 51.5746 10.1278L50.9373 9.18113V4.63513C51.4059 4.63513 51.8652 4.83201 52.1277 5.24441L53.8335 7.9251Z" fill="#D9D9D9"/>
</g>
<g clip-path="url(#clip1_1_93)">
<path d="M35.1303 0.847534H30.1565C30.0688 0.847534 29.9971 0.91919 29.9971 1.00682V2.98588H30.0386C30.1262 2.98588 30.198 3.05757 30.198 3.14516V4.06107H30.5135C30.6012 4.06107 30.6729 4.13275 30.6729 4.22038V5.01041H31.0564C31.1441 5.01041 31.2158 5.0821 31.2158 5.16969V15.1351H31.684C31.7717 15.1351 31.8434 15.2067 31.8434 15.2943V15.7657H35.1303C35.218 15.7657 35.2897 15.694 35.2897 15.6063V1.00685C35.2897 0.919222 35.2179 0.847534 35.1303 0.847534Z" fill="#FB8276"/>
<path d="M30.0385 2.98588C30.1262 2.98588 30.1979 3.05757 30.1979 3.14516V4.06107H30.5135C30.6012 4.06107 30.6729 4.13275 30.6729 4.22038V5.01041H30.8585V1.00682C30.8585 0.91919 30.9302 0.847534 31.0179 0.847534H30.1565C30.0688 0.847534 29.9971 0.91919 29.9971 1.00682V2.98588H30.0385Z" fill="black"/>
<path d="M34.0628 1.95056H34.6047C34.6669 1.95056 34.7265 1.92587 34.7704 1.88191C34.8144 1.83796 34.8391 1.77835 34.8391 1.71619C34.8391 1.65403 34.8144 1.59441 34.7704 1.55046C34.7265 1.5065 34.6669 1.48181 34.6047 1.48181H34.0628C34.0006 1.48181 33.941 1.5065 33.8971 1.55046C33.8531 1.59441 33.8284 1.65403 33.8284 1.71619C33.8284 1.77835 33.8531 1.83796 33.8971 1.88191C33.941 1.92587 34.0006 1.95056 34.0628 1.95056ZM31.2255 1.48181H30.6836C30.6214 1.48181 30.5618 1.5065 30.5179 1.55046C30.4739 1.59441 30.4492 1.65403 30.4492 1.71619C30.4492 1.77835 30.4739 1.83796 30.5179 1.88191C30.5618 1.92587 30.6214 1.95056 30.6836 1.95056H31.2255C31.2877 1.95056 31.3473 1.92587 31.3913 1.88191C31.4352 1.83796 31.4599 1.77835 31.4599 1.71619C31.4599 1.65403 31.4352 1.59441 31.3913 1.55046C31.3473 1.5065 31.2877 1.48181 31.2255 1.48181ZM34.6047 2.21453H34.0628C34.0006 2.21453 33.941 2.23922 33.8971 2.28318C33.8531 2.32713 33.8284 2.38675 33.8284 2.44891C33.8284 2.51107 33.8531 2.57068 33.8971 2.61463C33.941 2.65859 34.0006 2.68328 34.0628 2.68328H34.6047C34.6669 2.68328 34.7265 2.65859 34.7704 2.61463C34.8144 2.57068 34.8391 2.51107 34.8391 2.44891C34.8391 2.38675 34.8144 2.32713 34.7704 2.28318C34.7265 2.23922 34.6669 2.21453 34.6047 2.21453ZM31.2255 2.21453H30.6836C30.6214 2.21453 30.5618 2.23922 30.5179 2.28318C30.4739 2.32713 30.4492 2.38675 30.4492 2.44891C30.4492 2.51107 30.4739 2.57068 30.5179 2.61463C30.5618 2.65859 30.6214 2.68328 30.6836 2.68328H31.2255C31.2877 2.68328 31.3473 2.65859 31.3913 2.61463C31.4352 2.57068 31.4599 2.51107 31.4599 2.44891C31.4599 2.38675 31.4352 2.32713 31.3913 2.28318C31.3473 2.23922 31.2877 2.21453 31.2255 2.21453ZM34.6047 2.94728H34.0628C34.0006 2.94728 33.941 2.97197 33.8971 3.01593C33.8531 3.05988 33.8284 3.1195 33.8284 3.18166C33.8284 3.24382 33.8531 3.30343 33.8971 3.34738C33.941 3.39134 34.0006 3.41603 34.0628 3.41603H34.6047C34.6669 3.41603 34.7265 3.39134 34.7704 3.34738C34.8144 3.30343 34.8391 3.24382 34.8391 3.18166C34.8391 3.1195 34.8144 3.05988 34.7704 3.01593C34.7265 2.97197 34.6669 2.94728 34.6047 2.94728ZM31.2255 2.94728H30.6836C30.6214 2.94728 30.5618 2.97197 30.5179 3.01593C30.4739 3.05988 30.4492 3.1195 30.4492 3.18166C30.4492 3.24382 30.4739 3.30343 30.5179 3.34738C30.5618 3.39134 30.6214 3.41603 30.6836 3.41603H31.2255C31.2877 3.41603 31.3473 3.39134 31.3913 3.34738C31.4352 3.30343 31.4599 3.24382 31.4599 3.18166C31.4599 3.1195 31.4352 3.05988 31.3913 3.01593C31.3473 2.97197 31.2877 2.94728 31.2255 2.94728ZM34.6047 3.68003H34.0628C34.0006 3.68003 33.941 3.70472 33.8971 3.74868C33.8531 3.79263 33.8284 3.85225 33.8284 3.91441C33.8284 3.97657 33.8531 4.03618 33.8971 4.08013C33.941 4.12409 34.0006 4.14878 34.0628 4.14878H34.6047C34.6669 4.14878 34.7265 4.12409 34.7704 4.08013C34.8144 4.03618 34.8391 3.97657 34.8391 3.91441C34.8391 3.85225 34.8144 3.79263 34.7704 3.74868C34.7265 3.70472 34.6669 3.68003 34.6047 3.68003ZM31.2255 3.68003H30.6836C30.6214 3.68003 30.5618 3.70472 30.5179 3.74868C30.4739 3.79263 30.4492 3.85225 30.4492 3.91441C30.4492 3.97657 30.4739 4.03618 30.5179 4.08013C30.5618 4.12409 30.6214 4.14878 30.6836 4.14878H31.2255C31.2877 4.14878 31.3473 4.12409 31.3913 4.08013C31.4352 4.03618 31.4599 3.97657 31.4599 3.91441C31.4599 3.85225 31.4352 3.79263 31.3913 3.74868C31.3473 3.70472 31.2877 3.68003 31.2255 3.68003ZM34.6047 4.41275H34.0628C34.0006 4.41275 33.941 4.43744 33.8971 4.4814C33.8531 4.52535 33.8284 4.58496 33.8284 4.64712C33.8284 4.70928 33.8531 4.7689 33.8971 4.81285C33.941 4.85681 34.0006 4.8815 34.0628 4.8815H34.6047C34.6669 4.8815 34.7265 4.85681 34.7704 4.81285C34.8144 4.7689 34.8391 4.70928 34.8391 4.64712C34.8391 4.58496 34.8144 4.52535 34.7704 4.4814C34.7265 4.43744 34.6669 4.41275 34.6047 4.41275ZM31.2255 4.41275H30.6836C30.6214 4.41275 30.5618 4.43744 30.5179 4.4814C30.4739 4.52535 30.4492 4.58496 30.4492 4.64712C30.4492 4.70928 30.4739 4.7689 30.5179 4.81285C30.5618 4.85681 30.6214 4.8815 30.6836 4.8815H31.2255C31.2877 4.8815 31.3473 4.85681 31.3913 4.81285C31.4352 4.7689 31.4599 4.70928 31.4599 4.64712C31.4599 4.58496 31.4352 4.52535 31.3913 4.4814C31.3473 4.43744 31.2877 4.41275 31.2255 4.41275ZM34.6047 5.1455H34.0628C34.0006 5.1455 33.941 5.17019 33.8971 5.21415C33.8531 5.2581 33.8284 5.31771 33.8284 5.37987C33.8284 5.44203 33.8531 5.50165 33.8971 5.5456C33.941 5.58956 34.0006 5.61425 34.0628 5.61425H34.6047C34.6669 5.61425 34.7265 5.58956 34.7704 5.5456C34.8144 5.50165 34.8391 5.44203 34.8391 5.37987C34.8391 5.31771 34.8144 5.2581 34.7704 5.21415C34.7265 5.17019 34.6669 5.1455 34.6047 5.1455ZM31.2165 5.16972V5.61425H31.2255C31.2877 5.61425 31.3473 5.58956 31.3913 5.5456C31.4352 5.50165 31.4599 5.44203 31.4599 5.37987C31.4599 5.31771 31.4352 5.2581 31.3913 5.21415C31.3473 5.17019 31.2877 5.1455 31.2255 5.1455H31.2141C31.2153 5.15344 31.2165 5.16144 31.2165 5.16972ZM34.6047 5.87822H34.0628C34.0006 5.87822 33.941 5.90291 33.8971 5.94687C33.8531 5.99082 33.8284 6.05043 33.8284 6.11259C33.8284 6.17475 33.8531 6.23437 33.8971 6.27832C33.941 6.32228 34.0006 6.34697 34.0628 6.34697H34.6047C34.6669 6.34697 34.7265 6.32228 34.7704 6.27832C34.8144 6.23437 34.8391 6.17475 34.8391 6.11259C34.8391 6.05043 34.8144 5.99082 34.7704 5.94687C34.7265 5.90291 34.6669 5.87822 34.6047 5.87822ZM31.2165 6.34697H31.2255C31.2877 6.34697 31.3473 6.32228 31.3913 6.27832C31.4352 6.23437 31.4599 6.17475 31.4599 6.11259C31.4599 6.05043 31.4352 5.99082 31.3913 5.94687C31.3473 5.90291 31.2877 5.87822 31.2255 5.87822H31.2165V6.34697ZM34.6047 6.61097H34.0628C34.0006 6.61097 33.941 6.63566 33.8971 6.67962C33.8531 6.72357 33.8284 6.78318 33.8284 6.84534C33.8284 6.9075 33.8531 6.96712 33.8971 7.01107C33.941 7.05503 34.0006 7.07972 34.0628 7.07972H34.6047C34.6669 7.07972 34.7265 7.05503 34.7704 7.01107C34.8144 6.96712 34.8391 6.9075 34.8391 6.84534C34.8391 6.78318 34.8144 6.72357 34.7704 6.67962C34.7265 6.63566 34.6669 6.61097 34.6047 6.61097ZM31.2165 7.07972H31.2255C31.2877 7.07972 31.3473 7.05503 31.3913 7.01107C31.4352 6.96712 31.4599 6.9075 31.4599 6.84534C31.4599 6.78318 31.4352 6.72357 31.3913 6.67962C31.3473 6.63566 31.2877 6.61097 31.2255 6.61097H31.2165V7.07972ZM34.6047 7.34372H34.0628C34.0006 7.34372 33.941 7.36841 33.8971 7.41236C33.8531 7.45632 33.8284 7.51593 33.8284 7.57809C33.8284 7.64025 33.8531 7.69987 33.8971 7.74382C33.941 7.78778 34.0006 7.81247 34.0628 7.81247H34.6047C34.6669 7.81247 34.7265 7.78778 34.7704 7.74382C34.8144 7.69987 34.8391 7.64025 34.8391 7.57809C34.8391 7.51593 34.8144 7.45632 34.7704 7.41236C34.7265 7.36841 34.6669 7.34372 34.6047 7.34372ZM31.2165 7.81247H31.2255C31.2877 7.81247 31.3473 7.78778 31.3913 7.74382C31.4352 7.69987 31.4599 7.64025 31.4599 7.57809C31.4599 7.51593 31.4352 7.45632 31.3913 7.41236C31.3473 7.36841 31.2877 7.34372 31.2255 7.34372H31.2165V7.81247ZM34.6047 8.07647H34.0628C34.0006 8.07647 33.941 8.10116 33.8971 8.14511C33.8531 8.18907 33.8284 8.24868 33.8284 8.31084C33.8284 8.373 33.8531 8.43262 33.8971 8.47657C33.941 8.52052 34.0006 8.54522 34.0628 8.54522H34.6047C34.6669 8.54522 34.7265 8.52052 34.7704 8.47657C34.8144 8.43262 34.8391 8.373 34.8391 8.31084C34.8391 8.24868 34.8144 8.18907 34.7704 8.14511C34.7265 8.10116 34.6669 8.07647 34.6047 8.07647ZM31.2165 8.54522H31.2255C31.2877 8.54522 31.3473 8.52052 31.3913 8.47657C31.4352 8.43262 31.4599 8.373 31.4599 8.31084C31.4599 8.24868 31.4352 8.18907 31.3913 8.14511C31.3473 8.10116 31.2877 8.07647 31.2255 8.07647H31.2165V8.54522ZM34.6047 8.80919H34.0628C34.0006 8.80919 33.941 8.83388 33.8971 8.87783C33.8531 8.92179 33.8284 8.9814 33.8284 9.04356C33.8284 9.10572 33.8531 9.16534 33.8971 9.20929C33.941 9.25324 34.0006 9.27794 34.0628 9.27794H34.6047C34.6669 9.27794 34.7265 9.25324 34.7704 9.20929C34.8144 9.16534 34.8391 9.10572 34.8391 9.04356C34.8391 8.9814 34.8144 8.92179 34.7704 8.87783C34.7265 8.83388 34.6669 8.80919 34.6047 8.80919ZM31.2165 9.27794H31.2255C31.2877 9.27794 31.3473 9.25324 31.3913 9.20929C31.4352 9.16534 31.4599 9.10572 31.4599 9.04356C31.4599 8.9814 31.4352 8.92179 31.3913 8.87783C31.3473 8.83388 31.2877 8.80919 31.2255 8.80919H31.2165V9.27794ZM34.6047 9.54194H34.0628C34.0006 9.54194 33.941 9.56663 33.8971 9.61058C33.8531 9.65454 33.8284 9.71415 33.8284 9.77631C33.8284 9.83847 33.8531 9.89809 33.8971 9.94204C33.941 9.98599 34.0006 10.0107 34.0628 10.0107H34.6047C34.6669 10.0107 34.7265 9.98599 34.7704 9.94204C34.8144 9.89809 34.8391 9.83847 34.8391 9.77631C34.8391 9.71415 34.8144 9.65454 34.7704 9.61058C34.7265 9.56663 34.6669 9.54194 34.6047 9.54194ZM31.2165 10.0107H31.2255C31.2877 10.0107 31.3473 9.98599 31.3913 9.94204C31.4352 9.89809 31.4599 9.83847 31.4599 9.77631C31.4599 9.71415 31.4352 9.65454 31.3913 9.61058C31.3473 9.56663 31.2877 9.54194 31.2255 9.54194H31.2165V10.0107ZM34.6047 10.2747H34.0628C34.0006 10.2747 33.941 10.2993 33.8971 10.3433C33.8531 10.3873 33.8284 10.4469 33.8284 10.509C33.8284 10.5712 33.8531 10.6308 33.8971 10.6748C33.941 10.7187 34.0006 10.7434 34.0628 10.7434H34.6047C34.6669 10.7434 34.7265 10.7187 34.7704 10.6748C34.8144 10.6308 34.8391 10.5712 34.8391 10.509C34.8391 10.4469 34.8144 10.3873 34.7704 10.3433C34.7265 10.2993 34.6669 10.2747 34.6047 10.2747ZM31.2165 10.7434H31.2255C31.2877 10.7434 31.3473 10.7187 31.3913 10.6748C31.4352 10.6308 31.4599 10.5712 31.4599 10.509C31.4599 10.4469 31.4352 10.3873 31.3913 10.3433C31.3473 10.2993 31.2877 10.2747 31.2255 10.2747H31.2165V10.7434ZM34.6047 11.0074H34.0628C34.0006 11.0074 33.941 11.0321 33.8971 11.0761C33.8531 11.12 33.8284 11.1796 33.8284 11.2418C33.8284 11.3039 33.8531 11.3636 33.8971 11.4075C33.941 11.4515 34.0006 11.4762 34.0628 11.4762H34.6047C34.6669 11.4762 34.7265 11.4515 34.7704 11.4075C34.8144 11.3636 34.8391 11.3039 34.8391 11.2418C34.8391 11.1796 34.8144 11.12 34.7704 11.0761C34.7265 11.0321 34.6669 11.0074 34.6047 11.0074ZM31.2165 11.4762H31.2255C31.2877 11.4762 31.3473 11.4515 31.3913 11.4075C31.4352 11.3636 31.4599 11.3039 31.4599 11.2418C31.4599 11.1796 31.4352 11.12 31.3913 11.0761C31.3473 11.0321 31.2877 11.0074 31.2255 11.0074H31.2165V11.4762ZM34.6047 11.7401H34.0628C34.0006 11.7401 33.941 11.7648 33.8971 11.8088C33.8531 11.8527 33.8284 11.9123 33.8284 11.9745C33.8284 12.0367 33.8531 12.0963 33.8971 12.1402C33.941 12.1842 34.0006 12.2089 34.0628 12.2089H34.6047C34.6669 12.2089 34.7265 12.1842 34.7704 12.1402C34.8144 12.0963 34.8391 12.0367 34.8391 11.9745C34.8391 11.9123 34.8144 11.8527 34.7704 11.8088C34.7265 11.7648 34.6669 11.7401 34.6047 11.7401ZM31.2165 12.2089H31.2255C31.2877 12.2089 31.3473 12.1842 31.3913 12.1402C31.4352 12.0963 31.4599 12.0367 31.4599 11.9745C31.4599 11.9123 31.4352 11.8527 31.3913 11.8088C31.3473 11.7648 31.2877 11.7401 31.2255 11.7401H31.2165V12.2089ZM34.6047 12.4729H34.0628C34.0006 12.4729 33.941 12.4976 33.8971 12.5415C33.8531 12.5855 33.8284 12.6451 33.8284 12.7072C33.8284 12.7694 33.8531 12.829 33.8971 12.873C33.941 12.9169 34.0006 12.9416 34.0628 12.9416H34.6047C34.6669 12.9416 34.7265 12.9169 34.7704 12.873C34.8144 12.829 34.8391 12.7694 34.8391 12.7072C34.8391 12.6451 34.8144 12.5855 34.7704 12.5415C34.7265 12.4976 34.6669 12.4729 34.6047 12.4729ZM31.2165 12.9416H31.2255C31.2877 12.9416 31.3473 12.9169 31.3913 12.873C31.4352 12.829 31.4599 12.7694 31.4599 12.7072C31.4599 12.6451 31.4352 12.5855 31.3913 12.5415C31.3473 12.4976 31.2877 12.4729 31.2255 12.4729H31.2165V12.9416ZM34.6047 13.2056H34.0628C34.0006 13.2056 33.941 13.2303 33.8971 13.2743C33.8531 13.3182 33.8284 13.3778 33.8284 13.44C33.8284 13.5022 33.8531 13.5618 33.8971 13.6057C33.941 13.6497 34.0006 13.6744 34.0628 13.6744H34.6047C34.6669 13.6744 34.7265 13.6497 34.7704 13.6057C34.8144 13.5618 34.8391 13.5022 34.8391 13.44C34.8391 13.3778 34.8144 13.3182 34.7704 13.2743C34.7265 13.2303 34.6669 13.2056 34.6047 13.2056ZM31.2165 13.6744H31.2255C31.2877 13.6744 31.3473 13.6497 31.3913 13.6057C31.4352 13.5618 31.4599 13.5022 31.4599 13.44C31.4599 13.3778 31.4352 13.3182 31.3913 13.2743C31.3473 13.2303 31.2877 13.2056 31.2255 13.2056H31.2165V13.6744ZM34.6047 13.9384H34.0628C34.0006 13.9384 33.941 13.9631 33.8971 14.007C33.8531 14.051 33.8284 14.1106 33.8284 14.1727C33.8284 14.2349 33.8531 14.2945 33.8971 14.3385C33.941 14.3824 34.0006 14.4071 34.0628 14.4071H34.6047C34.6669 14.4071 34.7265 14.3824 34.7704 14.3385C34.8144 14.2945 34.8391 14.2349 34.8391 14.1727C34.8391 14.1106 34.8144 14.051 34.7704 14.007C34.7265 13.9631 34.6669 13.9384 34.6047 13.9384ZM31.2165 14.4071H31.2255C31.2877 14.4071 31.3473 14.3824 31.3913 14.3385C31.4352 14.2945 31.4599 14.2349 31.4599 14.1727C31.4599 14.1106 31.4352 14.051 31.3913 14.007C31.3473 13.9631 31.2877 13.9384 31.2255 13.9384H31.2165V14.4071ZM33.2993 1.48181H31.989C31.9269 1.48181 31.8673 1.5065 31.8233 1.55046C31.7793 1.59441 31.7547 1.65403 31.7547 1.71619C31.7547 1.77835 31.7793 1.83796 31.8233 1.88191C31.8673 1.92587 31.9269 1.95056 31.989 1.95056H33.2993C33.33 1.95056 33.3605 1.9445 33.3889 1.93272C33.4174 1.92094 33.4432 1.90368 33.465 1.88191C33.4867 1.86015 33.504 1.83431 33.5158 1.80588C33.5276 1.77744 33.5336 1.74697 33.5336 1.71619C33.5336 1.65403 33.5089 1.59441 33.465 1.55046C33.421 1.5065 33.3614 1.48181 33.2993 1.48181ZM33.2993 2.21453H31.989C31.9269 2.21453 31.8673 2.23922 31.8233 2.28318C31.7793 2.32713 31.7547 2.38675 31.7547 2.44891C31.7547 2.51107 31.7793 2.57068 31.8233 2.61463C31.8673 2.65859 31.9269 2.68328 31.989 2.68328H33.2993C33.3614 2.68328 33.421 2.65859 33.465 2.61463C33.5089 2.57068 33.5336 2.51107 33.5336 2.44891C33.5336 2.38675 33.5089 2.32713 33.465 2.28318C33.421 2.23922 33.3614 2.21453 33.2993 2.21453ZM33.2993 2.94728H31.989C31.9269 2.94728 31.8673 2.97197 31.8233 3.01593C31.7793 3.05988 31.7547 3.1195 31.7547 3.18166C31.7547 3.24382 31.7793 3.30343 31.8233 3.34738C31.8673 3.39134 31.9269 3.41603 31.989 3.41603H33.2993C33.3614 3.41603 33.421 3.39134 33.465 3.34738C33.5089 3.30343 33.5336 3.24382 33.5336 3.18166C33.5336 3.1195 33.5089 3.05988 33.465 3.01593C33.421 2.97197 33.3614 2.94728 33.2993 2.94728ZM33.2993 3.68003H31.989C31.9269 3.68003 31.8673 3.70472 31.8233 3.74868C31.7793 3.79263 31.7547 3.85225 31.7547 3.91441C31.7547 3.97657 31.7793 4.03618 31.8233 4.08013C31.8673 4.12409 31.9269 4.14878 31.989 4.14878H33.2993C33.3614 4.14878 33.421 4.12409 33.465 4.08013C33.5089 4.03618 33.5336 3.97657 33.5336 3.91441C33.5336 3.85225 33.5089 3.79263 33.465 3.74868C33.421 3.70472 33.3614 3.68003 33.2993 3.68003ZM33.2993 4.41275H31.989C31.9269 4.41275 31.8673 4.43744 31.8233 4.4814C31.7793 4.52535 31.7547 4.58496 31.7547 4.64712C31.7547 4.70928 31.7793 4.7689 31.8233 4.81285C31.8673 4.85681 31.9269 4.8815 31.989 4.8815H33.2993C33.3614 4.8815 33.421 4.85681 33.465 4.81285C33.5089 4.7689 33.5336 4.70928 33.5336 4.64712C33.5336 4.58496 33.5089 4.52535 33.465 4.4814C33.421 4.43744 33.3614 4.41275 33.2993 4.41275ZM33.2993 5.1455H31.989C31.9269 5.1455 31.8673 5.17019 31.8233 5.21415C31.7793 5.2581 31.7547 5.31771 31.7547 5.37987C31.7547 5.44203 31.7793 5.50165 31.8233 5.5456C31.8673 5.58956 31.9269 5.61425 31.989 5.61425H33.2993C33.3614 5.61425 33.421 5.58956 33.465 5.5456C33.5089 5.50165 33.5336 5.44203 33.5336 5.37987C33.5336 5.31771 33.5089 5.2581 33.465 5.21415C33.421 5.17019 33.3614 5.1455 33.2993 5.1455ZM33.2993 5.87822H31.989C31.9269 5.87822 31.8673 5.90291 31.8233 5.94687C31.7793 5.99082 31.7547 6.05043 31.7547 6.11259C31.7547 6.17475 31.7793 6.23437 31.8233 6.27832C31.8673 6.32228 31.9269 6.34697 31.989 6.34697H33.2993C33.3614 6.34697 33.421 6.32228 33.465 6.27832C33.5089 6.23437 33.5336 6.17475 33.5336 6.11259C33.5336 6.05043 33.5089 5.99082 33.465 5.94687C33.421 5.90291 33.3614 5.87822 33.2993 5.87822ZM33.2993 6.61097H31.989C31.9269 6.61097 31.8673 6.63566 31.8233 6.67962C31.7793 6.72357 31.7547 6.78318 31.7547 6.84534C31.7547 6.9075 31.7793 6.96712 31.8233 7.01107C31.8673 7.05503 31.9269 7.07972 31.989 7.07972H33.2993C33.3614 7.07972 33.421 7.05503 33.465 7.01107C33.5089 6.96712 33.5336 6.9075 33.5336 6.84534C33.5336 6.78318 33.5089 6.72357 33.465 6.67962C33.421 6.63566 33.3614 6.61097 33.2993 6.61097ZM33.2993 7.34372H31.989C31.9269 7.34372 31.8673 7.36841 31.8233 7.41236C31.7793 7.45632 31.7547 7.51593 31.7547 7.57809C31.7547 7.64025 31.7793 7.69987 31.8233 7.74382C31.8673 7.78778 31.9269 7.81247 31.989 7.81247H33.2993C33.3614 7.81247 33.421 7.78778 33.465 7.74382C33.5089 7.69987 33.5336 7.64025 33.5336 7.57809C33.5336 7.51593 33.5089 7.45632 33.465 7.41236C33.421 7.36841 33.3614 7.34372 33.2993 7.34372ZM33.2993 8.07647H31.989C31.9269 8.07647 31.8673 8.10116 31.8233 8.14511C31.7793 8.18907 31.7547 8.24868 31.7547 8.31084C31.7547 8.373 31.7793 8.43262 31.8233 8.47657C31.8673 8.52052 31.9269 8.54522 31.989 8.54522H33.2993C33.3614 8.54522 33.421 8.52052 33.465 8.47657C33.5089 8.43262 33.5336 8.373 33.5336 8.31084C33.5336 8.24868 33.5089 8.18907 33.465 8.14511C33.421 8.10116 33.3614 8.07647 33.2993 8.07647ZM33.2993 8.80919H31.989C31.9269 8.80919 31.8673 8.83388 31.8233 8.87783C31.7793 8.92179 31.7547 8.9814 31.7547 9.04356C31.7547 9.10572 31.7793 9.16534 31.8233 9.20929C31.8673 9.25324 31.9269 9.27794 31.989 9.27794H33.2993C33.3614 9.27794 33.421 9.25324 33.465 9.20929C33.5089 9.16534 33.5336 9.10572 33.5336 9.04356C33.5336 8.9814 33.5089 8.92179 33.465 8.87783C33.421 8.83388 33.3614 8.80919 33.2993 8.80919ZM33.2993 9.54194H31.989C31.9269 9.54194 31.8673 9.56663 31.8233 9.61058C31.7793 9.65454 31.7547 9.71415 31.7547 9.77631C31.7547 9.83847 31.7793 9.89809 31.8233 9.94204C31.8673 9.98599 31.9269 10.0107 31.989 10.0107H33.2993C33.3614 10.0107 33.421 9.98599 33.465 9.94204C33.5089 9.89809 33.5336 9.83847 33.5336 9.77631C33.5336 9.71415 33.5089 9.65454 33.465 9.61058C33.421 9.56663 33.3614 9.54194 33.2993 9.54194ZM33.2993 10.2747H31.989C31.9269 10.2747 31.8673 10.2993 31.8233 10.3433C31.7793 10.3873 31.7547 10.4469 31.7547 10.509C31.7547 10.5712 31.7793 10.6308 31.8233 10.6748C31.8673 10.7187 31.9269 10.7434 31.989 10.7434H33.2993C33.3614 10.7434 33.421 10.7187 33.465 10.6748C33.5089 10.6308 33.5336 10.5712 33.5336 10.509C33.5336 10.4469 33.5089 10.3873 33.465 10.3433C33.421 10.2993 33.3614 10.2747 33.2993 10.2747ZM33.2993 11.0074H31.989C31.9269 11.0074 31.8673 11.0321 31.8233 11.0761C31.7793 11.12 31.7547 11.1796 31.7547 11.2418C31.7547 11.3039 31.7793 11.3636 31.8233 11.4075C31.8673 11.4515 31.9269 11.4762 31.989 11.4762H33.2993C33.3614 11.4762 33.421 11.4515 33.465 11.4075C33.5089 11.3636 33.5336 11.3039 33.5336 11.2418C33.5336 11.1796 33.5089 11.12 33.465 11.0761C33.421 11.0321 33.3614 11.0074 33.2993 11.0074ZM33.2993 11.7401H31.989C31.9269 11.7401 31.8673 11.7648 31.8233 11.8088C31.7793 11.8527 31.7547 11.9123 31.7547 11.9745C31.7547 12.0367 31.7793 12.0963 31.8233 12.1402C31.8673 12.1842 31.9269 12.2089 31.989 12.2089H33.2993C33.3614 12.2089 33.421 12.1842 33.465 12.1402C33.5089 12.0963 33.5336 12.0367 33.5336 11.9745C33.5336 11.9123 33.5089 11.8527 33.465 11.8088C33.421 11.7648 33.3614 11.7401 33.2993 11.7401ZM33.2993 12.4729H31.989C31.9269 12.4729 31.8673 12.4976 31.8233 12.5415C31.7793 12.5855 31.7547 12.6451 31.7547 12.7072C31.7547 12.7694 31.7793 12.829 31.8233 12.873C31.8673 12.9169 31.9269 12.9416 31.989 12.9416H33.2993C33.3614 12.9416 33.421 12.9169 33.465 12.873C33.5089 12.829 33.5336 12.7694 33.5336 12.7072C33.5336 12.6451 33.5089 12.5855 33.465 12.5415C33.421 12.4976 33.3614 12.4729 33.2993 12.4729ZM33.2993 13.2056H31.989C31.9269 13.2056 31.8673 13.2303 31.8233 13.2743C31.7793 13.3182 31.7547 13.3778 31.7547 13.44C31.7547 13.5022 31.7793 13.5618 31.8233 13.6057C31.8673 13.6497 31.9269 13.6744 31.989 13.6744H33.2993C33.3614 13.6744 33.421 13.6497 33.465 13.6057C33.5089 13.5618 33.5336 13.5022 33.5336 13.44C33.5336 13.3778 33.5089 13.3182 33.465 13.2743C33.421 13.2303 33.3614 13.2056 33.2993 13.2056ZM33.2993 13.9384H31.989C31.9269 13.9384 31.8673 13.9631 31.8233 14.007C31.7793 14.051 31.7547 14.1106 31.7547 14.1727C31.7547 14.2349 31.7793 14.2945 31.8233 14.3385C31.8673 14.3824 31.9269 14.4071 31.989 14.4071H33.2993C33.3614 14.4071 33.421 14.3824 33.465 14.3385C33.5089 14.2945 33.5336 14.2349 33.5336 14.1727C33.5336 14.1106 33.5089 14.051 33.465 14.007C33.421 13.9631 33.3614 13.9384 33.2993 13.9384Z" fill="#EF5050"/>
<path d="M26.7814 6.10512V5.16968C26.7814 5.08209 26.8532 5.0104 26.9408 5.0104H27.3243V4.22037C27.3243 4.13275 27.396 4.06106 27.4837 4.06106H27.7992V3.14515C27.7992 3.06112 27.8655 2.99244 27.9482 2.98694V0.0914039C27.9482 0.00377892 27.8899 -0.0261273 27.8187 0.0249352L24.9564 2.07694C24.8852 2.128 24.8269 2.24147 24.8269 2.32906V6.10509L26.7814 6.10512Z" fill="#D5E962"/>
<path d="M25.6555 6.10512V2.55847C25.6555 2.47087 25.7138 2.3574 25.785 2.30634L27.9482 0.755529V0.0914039C27.9482 0.00377892 27.8899 -0.0261273 27.8187 0.0249352L24.9564 2.07694C24.8852 2.128 24.8269 2.24147 24.8269 2.32906V6.10509L25.6555 6.10512Z" fill="black"/>
<path d="M25.5254 3.16113H27.5338C27.5959 3.16113 27.6555 3.13644 27.6995 3.09249C27.7434 3.04853 27.7681 2.98892 27.7681 2.92676C27.7681 2.8646 27.7434 2.80498 27.6995 2.76103C27.6555 2.71708 27.5959 2.69238 27.5338 2.69238H25.5254C25.4632 2.69238 25.4036 2.71708 25.3597 2.76103C25.3157 2.80498 25.291 2.8646 25.291 2.92676C25.291 2.98892 25.3157 3.04853 25.3597 3.09249C25.4036 3.13644 25.4632 3.16113 25.5254 3.16113ZM27.5338 3.37735H25.5254C25.4632 3.37735 25.4036 3.40204 25.3597 3.446C25.3157 3.48995 25.291 3.54957 25.291 3.61173C25.291 3.67389 25.3157 3.7335 25.3597 3.77745C25.4036 3.82141 25.4632 3.8461 25.5254 3.8461H27.5338C27.5959 3.8461 27.6555 3.82141 27.6995 3.77745C27.7434 3.7335 27.7681 3.67389 27.7681 3.61173C27.7681 3.54957 27.7434 3.48995 27.6995 3.446C27.6555 3.40204 27.5959 3.37735 27.5338 3.37735ZM25.5254 4.53104H27.3245V4.22038C27.3245 4.13688 27.3899 4.0686 27.4719 4.06229H25.5254C25.4632 4.06229 25.4036 4.08698 25.3597 4.13094C25.3157 4.17489 25.291 4.2345 25.291 4.29666C25.291 4.35882 25.3157 4.41844 25.3597 4.46239C25.4036 4.50635 25.4632 4.53104 25.5254 4.53104ZM25.5254 5.21598H26.7817V5.1697C26.7817 5.0821 26.8534 5.01041 26.9411 5.01041H27.3245V4.74726H25.5254C25.4637 4.74797 25.4048 4.77297 25.3614 4.81685C25.318 4.86072 25.2937 4.91993 25.2937 4.98162C25.2937 5.04331 25.318 5.10251 25.3614 5.14639C25.4048 5.19026 25.4637 5.21526 25.5254 5.21598ZM25.5254 5.90095H26.7817V5.4322H25.5254C25.4632 5.4322 25.4036 5.45689 25.3597 5.50084C25.3157 5.5448 25.291 5.60441 25.291 5.66657C25.291 5.72873 25.3157 5.78834 25.3597 5.8323C25.4036 5.87625 25.4632 5.90095 25.5254 5.90095Z" fill="#89C947"/>
<path d="M27.4051 15.6063C27.4051 15.6939 27.3333 15.7656 27.2456 15.7656H22.8146C22.727 15.7656 22.6553 15.6939 22.6553 15.6063V6.09251C22.6553 6.00492 22.727 5.93323 22.8146 5.93323H27.2456C27.3333 5.93323 27.4051 6.00492 27.4051 6.09251V15.6063Z" fill="#F7931E"/>
<path d="M23.2935 15.6063V6.09251C23.2935 6.00492 23.3652 5.93323 23.4529 5.93323H22.8146C22.727 5.93323 22.6553 6.00492 22.6553 6.09251V15.6063C22.6553 15.6939 22.727 15.7656 22.8146 15.7656H23.4528C23.3652 15.7656 23.2935 15.6939 23.2935 15.6063Z" fill="black"/>
<path d="M23.5713 14.0335C23.5091 14.0335 23.4495 14.0088 23.4056 13.9649C23.3616 13.9209 23.3369 13.8613 23.3369 13.7991V7.11987C23.3369 7.05771 23.3616 6.9981 23.4056 6.95414C23.4495 6.91019 23.5091 6.8855 23.5713 6.8855C23.6334 6.8855 23.6931 6.91019 23.737 6.95414C23.781 6.9981 23.8057 7.05771 23.8057 7.11987V13.7991C23.8057 13.8299 23.7996 13.8604 23.7878 13.8888C23.7761 13.9172 23.7588 13.9431 23.737 13.9648C23.7153 13.9866 23.6894 14.0039 23.661 14.0157C23.6325 14.0274 23.6021 14.0335 23.5713 14.0335ZM24.3177 14.0335C24.2555 14.0335 24.1959 14.0088 24.152 13.9649C24.108 13.9209 24.0833 13.8613 24.0833 13.7991V7.11987C24.0833 7.05771 24.108 6.9981 24.152 6.95414C24.1959 6.91019 24.2555 6.8855 24.3177 6.8855C24.3799 6.8855 24.4395 6.91019 24.4834 6.95414C24.5274 6.9981 24.5521 7.05771 24.5521 7.11987V13.7991C24.5521 13.8299 24.546 13.8604 24.5342 13.8888C24.5225 13.9172 24.5052 13.9431 24.4834 13.9648C24.4617 13.9866 24.4358 14.0039 24.4074 14.0157C24.379 14.0274 24.3485 14.0335 24.3177 14.0335ZM25.0641 14.0335C25.0019 14.0335 24.9423 14.0088 24.8984 13.9649C24.8544 13.9209 24.8297 13.8613 24.8297 13.7991V7.11987C24.8297 7.05771 24.8544 6.9981 24.8984 6.95414C24.9423 6.91019 25.0019 6.8855 25.0641 6.8855C25.1263 6.8855 25.1859 6.91019 25.2298 6.95414C25.2738 6.9981 25.2985 7.05771 25.2985 7.11987V13.7991C25.2985 13.8299 25.2924 13.8604 25.2806 13.8888C25.2689 13.9172 25.2516 13.9431 25.2298 13.9648C25.2081 13.9866 25.1822 14.0039 25.1538 14.0157C25.1254 14.0274 25.0949 14.0335 25.0641 14.0335ZM25.8105 14.0335C25.7483 14.0335 25.6887 14.0088 25.6447 13.9649C25.6008 13.9209 25.5761 13.8613 25.5761 13.7991V7.11987C25.5761 7.05771 25.6008 6.9981 25.6447 6.95414C25.6887 6.91019 25.7483 6.8855 25.8105 6.8855C25.8726 6.8855 25.9323 6.91019 25.9762 6.95414C26.0202 6.9981 26.0449 7.05771 26.0449 7.11987V13.7991C26.0449 13.8299 26.0388 13.8604 26.027 13.8888C26.0152 13.9172 25.998 13.9431 25.9762 13.9648C25.9545 13.9866 25.9286 14.0039 25.9002 14.0157C25.8717 14.0274 25.8413 14.0335 25.8105 14.0335Z" fill="#FFC502"/>
<path d="M29.2344 2.99998V0.542358C29.2344 0.480198 29.2097 0.420584 29.1657 0.37663C29.1218 0.332676 29.0622 0.307983 29 0.307983C28.9378 0.307983 28.8782 0.332676 28.8343 0.37663C28.7903 0.420584 28.7656 0.480198 28.7656 0.542358V2.99998H29.2344Z" fill="#C5CCD3"/>
<path d="M30.3567 4.06246V2.97325C30.3567 2.88565 30.285 2.81396 30.1973 2.81396H27.802C27.7143 2.81396 27.6426 2.88565 27.6426 2.97325V4.06246H30.3567Z" fill="#E6E9ED"/>
<path d="M28.2983 4.06246V2.97325C28.2983 2.88565 28.37 2.81396 28.4577 2.81396H27.802C27.7143 2.81396 27.6426 2.88565 27.6426 2.97325V4.06246H28.2983Z" fill="black"/>
<path d="M30.832 4.99482V4.04847C30.832 3.96085 30.7603 3.88916 30.6726 3.88916H27.3274C27.2397 3.88916 27.168 3.96085 27.168 4.04847V4.99482H30.832Z" fill="#C5CCD3"/>
<path d="M28.1712 4.99482V4.04847C28.1712 3.96085 28.2429 3.88916 28.3305 3.88916H27.3274C27.2397 3.88916 27.168 3.96085 27.168 4.04847V4.99482H28.1712Z" fill="black"/>
<path d="M31.3748 15.1219C31.3748 15.2095 31.3031 15.2812 31.2154 15.2812H26.7844C26.6967 15.2812 26.625 15.2095 26.625 15.1219V4.99778C26.625 4.91019 26.6967 4.8385 26.7844 4.8385H31.2154C31.3031 4.8385 31.3748 4.91019 31.3748 4.99778V15.1219Z" fill="#E6E9ED"/>
<path d="M27.2786 15.1219V4.99778C27.2786 4.91019 27.3503 4.8385 27.438 4.8385H26.7844C26.6967 4.8385 26.625 4.91019 26.625 4.99778V15.1219C26.625 15.2095 26.6967 15.2812 26.7844 15.2812H27.438C27.3503 15.2812 27.2786 15.2095 27.2786 15.1219Z" fill="black"/>
<path d="M23.385 14.592C24.0667 14.592 24.6194 14.0397 24.6194 13.3584C24.6194 12.6772 24.0667 12.1249 23.385 12.1249C22.7033 12.1249 22.1506 12.6772 22.1506 13.3584C22.1506 14.0397 22.7033 14.592 23.385 14.592Z" fill="#89C947"/>
<path d="M23.3848 14.4063C23.3046 14.4063 23.2263 14.3984 23.1504 14.3838V15.625H23.6191V14.3838C23.5432 14.3984 23.4649 14.4063 23.3848 14.4063Z" fill="#775436"/>
<path d="M22.8821 13.3583C22.8821 12.8044 23.2475 12.3357 23.7506 12.1799C23.6321 12.1432 23.5088 12.1246 23.3848 12.1248C22.703 12.1248 22.1504 12.677 22.1504 13.3583C22.1504 14.0396 22.703 14.5919 23.3848 14.5919C23.5122 14.5919 23.635 14.5726 23.7506 14.5368C23.2475 14.3809 22.8821 13.9123 22.8821 13.3583Z" fill="black"/>
<path d="M34.5645 14.4063C34.4843 14.4063 34.406 14.3984 34.3301 14.3838V15.625H34.7988V14.3838C34.7229 14.3984 34.6446 14.4063 34.5645 14.4063Z" fill="#775436"/>
<path d="M34.5645 14.592C35.2462 14.592 35.7988 14.0397 35.7988 13.3584C35.7988 12.6772 35.2462 12.1249 34.5645 12.1249C33.8827 12.1249 33.3301 12.6772 33.3301 13.3584C33.3301 14.0397 33.8827 14.592 34.5645 14.592Z" fill="#89C947"/>
<path d="M34.0738 13.3583C34.0738 12.8066 34.4364 12.3396 34.9363 12.1818C34.816 12.1439 34.6906 12.1247 34.5645 12.1248C33.8827 12.1248 33.3301 12.677 33.3301 13.3583C33.3301 14.0396 33.8827 14.5919 34.5645 14.5919C34.6941 14.5919 34.819 14.5718 34.9363 14.5348C34.4364 14.3771 34.0738 13.9101 34.0738 13.3583Z" fill="black"/>
<path d="M27.3037 12.7934C27.2416 12.7934 27.1819 12.8181 27.138 12.862C27.094 12.906 27.0693 12.9656 27.0693 13.0277V13.3583C27.0693 13.4205 27.094 13.4801 27.138 13.5241C27.1819 13.568 27.2416 13.5927 27.3037 13.5927C27.3659 13.5927 27.4255 13.568 27.4694 13.5241C27.5134 13.4801 27.5381 13.4205 27.5381 13.3583V13.0277C27.5381 12.9656 27.5134 12.906 27.4694 12.862C27.4255 12.8181 27.3659 12.7934 27.3037 12.7934ZM30.6964 12.7934C30.6342 12.7934 30.5746 12.8181 30.5307 12.862C30.4867 12.906 30.462 12.9656 30.462 13.0277V13.3583C30.462 13.4205 30.4867 13.4801 30.5307 13.5241C30.5746 13.568 30.6342 13.5927 30.6964 13.5927C30.7586 13.5927 30.8182 13.568 30.8621 13.5241C30.9061 13.4801 30.9308 13.4205 30.9308 13.3583V13.0277C30.9308 12.9656 30.9061 12.906 30.8621 12.862C30.8182 12.8181 30.7586 12.7934 30.6964 12.7934ZM27.3037 5.34705C27.2416 5.34705 27.1819 5.37174 27.138 5.41569C27.094 5.45965 27.0693 5.51926 27.0693 5.58142V5.91198C27.0693 5.97414 27.094 6.03376 27.138 6.07771C27.1819 6.12167 27.2416 6.14636 27.3037 6.14636C27.3659 6.14636 27.4255 6.12167 27.4694 6.07771C27.5134 6.03376 27.5381 5.97414 27.5381 5.91198V5.58142C27.5381 5.51926 27.5134 5.45965 27.4694 5.41569C27.4255 5.37174 27.3659 5.34705 27.3037 5.34705ZM27.9822 5.34705C27.9201 5.34705 27.8605 5.37174 27.8165 5.41569C27.7726 5.45965 27.7479 5.51926 27.7479 5.58142V5.91198C27.7479 5.97414 27.7726 6.03376 27.8165 6.07771C27.8605 6.12167 27.9201 6.14636 27.9822 6.14636C28.0444 6.14636 28.104 6.12167 28.148 6.07771C28.1919 6.03376 28.2166 5.97414 28.2166 5.91198V5.58142C28.2166 5.51926 28.1919 5.45965 28.148 5.41569C28.104 5.37174 28.0444 5.34705 27.9822 5.34705ZM28.6608 5.34705C28.5986 5.34705 28.539 5.37174 28.495 5.41569C28.4511 5.45965 28.4264 5.51926 28.4264 5.58142V5.91198C28.4264 5.97414 28.4511 6.03376 28.495 6.07771C28.539 6.12167 28.5986 6.14636 28.6608 6.14636C28.7229 6.14636 28.7825 6.12167 28.8265 6.07771C28.8705 6.03376 28.8951 5.97414 28.8951 5.91198V5.58142C28.8951 5.51926 28.8705 5.45965 28.8265 5.41569C28.7825 5.37174 28.7229 5.34705 28.6608 5.34705ZM29.3393 5.34705C29.2772 5.34705 29.2176 5.37174 29.1736 5.41569C29.1297 5.45965 29.105 5.51926 29.105 5.58142V5.91198C29.105 5.97414 29.1297 6.03376 29.1736 6.07771C29.2176 6.12167 29.2772 6.14636 29.3393 6.14636C29.4015 6.14636 29.4611 6.12167 29.5051 6.07771C29.549 6.03376 29.5737 5.97414 29.5737 5.91198V5.58142C29.5737 5.51926 29.549 5.45965 29.5051 5.41569C29.4611 5.37174 29.4015 5.34705 29.3393 5.34705ZM30.0179 5.34705C29.9557 5.34705 29.8961 5.37174 29.8521 5.41569C29.8082 5.45965 29.7835 5.51926 29.7835 5.58142V5.91198C29.7835 5.97414 29.8082 6.03376 29.8521 6.07771C29.8961 6.12167 29.9557 6.14636 30.0179 6.14636C30.08 6.14636 30.1396 6.12167 30.1836 6.07771C30.2275 6.03376 30.2522 5.97414 30.2522 5.91198V5.58142C30.2522 5.51926 30.2275 5.45965 30.1836 5.41569C30.1396 5.37174 30.08 5.34705 30.0179 5.34705ZM30.6964 5.34705C30.6342 5.34705 30.5746 5.37174 30.5307 5.41569C30.4867 5.45965 30.462 5.51926 30.462 5.58142V5.91198C30.462 5.97414 30.4867 6.03376 30.5307 6.07771C30.5746 6.12167 30.6342 6.14636 30.6964 6.14636C30.7586 6.14636 30.8182 6.12167 30.8621 6.07771C30.9061 6.03376 30.9308 5.97414 30.9308 5.91198V5.58142C30.9308 5.51926 30.9061 5.45965 30.8621 5.41569C30.8182 5.37174 30.7586 5.34705 30.6964 5.34705ZM27.3037 6.41083C27.2416 6.41083 27.1819 6.43552 27.138 6.47947C27.094 6.52343 27.0693 6.58304 27.0693 6.6452V6.97576C27.0693 7.03792 27.094 7.09754 27.138 7.14149C27.1819 7.18545 27.2416 7.21014 27.3037 7.21014C27.3659 7.21014 27.4255 7.18545 27.4694 7.14149C27.5134 7.09754 27.5381 7.03792 27.5381 6.97576V6.6452C27.5381 6.58304 27.5134 6.52343 27.4694 6.47947C27.4255 6.43552 27.3659 6.41083 27.3037 6.41083ZM27.9822 6.41083C27.9201 6.41083 27.8605 6.43552 27.8165 6.47947C27.7726 6.52343 27.7479 6.58304 27.7479 6.6452V6.97576C27.7479 7.03792 27.7726 7.09754 27.8165 7.14149C27.8605 7.18545 27.9201 7.21014 27.9822 7.21014C28.0444 7.21014 28.104 7.18545 28.148 7.14149C28.1919 7.09754 28.2166 7.03792 28.2166 6.97576V6.6452C28.2166 6.58304 28.1919 6.52343 28.148 6.47947C28.104 6.43552 28.0444 6.41083 27.9822 6.41083ZM28.6608 6.41083C28.5986 6.41083 28.539 6.43552 28.495 6.47947C28.4511 6.52343 28.4264 6.58304 28.4264 6.6452V6.97576C28.4264 7.03792 28.4511 7.09754 28.495 7.14149C28.539 7.18545 28.5986 7.21014 28.6608 7.21014C28.7229 7.21014 28.7825 7.18545 28.8265 7.14149C28.8705 7.09754 28.8951 7.03792 28.8951 6.97576V6.6452C28.8951 6.58304 28.8705 6.52343 28.8265 6.47947C28.7825 6.43552 28.7229 6.41083 28.6608 6.41083ZM29.3393 6.41083C29.2772 6.41083 29.2176 6.43552 29.1736 6.47947C29.1297 6.52343 29.105 6.58304 29.105 6.6452V6.97576C29.105 7.03792 29.1297 7.09754 29.1736 7.14149C29.2176 7.18545 29.2772 7.21014 29.3393 7.21014C29.4015 7.21014 29.4611 7.18545 29.5051 7.14149C29.549 7.09754 29.5737 7.03792 29.5737 6.97576V6.6452C29.5737 6.58304 29.549 6.52343 29.5051 6.47947C29.4611 6.43552 29.4015 6.41083 29.3393 6.41083ZM30.0179 6.41083C29.9557 6.41083 29.8961 6.43552 29.8521 6.47947C29.8082 6.52343 29.7835 6.58304 29.7835 6.6452V6.97576C29.7835 7.03792 29.8082 7.09754 29.8521 7.14149C29.8961 7.18545 29.9557 7.21014 30.0179 7.21014C30.08 7.21014 30.1396 7.18545 30.1836 7.14149C30.2275 7.09754 30.2522 7.03792 30.2522 6.97576V6.6452C30.2522 6.58304 30.2275 6.52343 30.1836 6.47947C30.1396 6.43552 30.08 6.41083 30.0179 6.41083ZM30.6964 6.41083C30.6342 6.41083 30.5746 6.43552 30.5307 6.47947C30.4867 6.52343 30.462 6.58304 30.462 6.6452V6.97576C30.462 7.03792 30.4867 7.09754 30.5307 7.14149C30.5746 7.18545 30.6342 7.21014 30.6964 7.21014C30.7586 7.21014 30.8182 7.18545 30.8621 7.14149C30.9061 7.09754 30.9308 7.03792 30.9308 6.97576V6.6452C30.9308 6.58304 30.9061 6.52343 30.8621 6.47947C30.8182 6.43552 30.7586 6.41083 30.6964 6.41083ZM27.3037 7.47458C27.2416 7.47458 27.1819 7.49927 27.138 7.54322C27.094 7.58718 27.0693 7.64679 27.0693 7.70895V8.03951C27.0693 8.10167 27.094 8.16129 27.138 8.20524C27.1819 8.2492 27.2416 8.27389 27.3037 8.27389C27.3659 8.27389 27.4255 8.2492 27.4694 8.20524C27.5134 8.16129 27.5381 8.10167 27.5381 8.03951V7.70895C27.5381 7.64679 27.5134 7.58718 27.4694 7.54322C27.4255 7.49927 27.3659 7.47458 27.3037 7.47458ZM27.9822 7.47458C27.9201 7.47458 27.8605 7.49927 27.8165 7.54322C27.7726 7.58718 27.7479 7.64679 27.7479 7.70895V8.03951C27.7479 8.10167 27.7726 8.16129 27.8165 8.20524C27.8605 8.2492 27.9201 8.27389 27.9822 8.27389C28.0444 8.27389 28.104 8.2492 28.148 8.20524C28.1919 8.16129 28.2166 8.10167 28.2166 8.03951V7.70895C28.2166 7.64679 28.1919 7.58718 28.148 7.54322C28.104 7.49927 28.0444 7.47458 27.9822 7.47458ZM28.6608 7.47458C28.5986 7.47458 28.539 7.49927 28.495 7.54322C28.4511 7.58718 28.4264 7.64679 28.4264 7.70895V8.03951C28.4264 8.10167 28.4511 8.16129 28.495 8.20524C28.539 8.2492 28.5986 8.27389 28.6608 8.27389C28.7229 8.27389 28.7825 8.2492 28.8265 8.20524C28.8705 8.16129 28.8951 8.10167 28.8951 8.03951V7.70895C28.8951 7.64679 28.8705 7.58718 28.8265 7.54322C28.7825 7.49927 28.7229 7.47458 28.6608 7.47458ZM29.3393 7.47458C29.2772 7.47458 29.2176 7.49927 29.1736 7.54322C29.1297 7.58718 29.105 7.64679 29.105 7.70895V8.03951C29.105 8.10167 29.1297 8.16129 29.1736 8.20524C29.2176 8.2492 29.2772 8.27389 29.3393 8.27389C29.4015 8.27389 29.4611 8.2492 29.5051 8.20524C29.549 8.16129 29.5737 8.10167 29.5737 8.03951V7.70895C29.5737 7.64679 29.549 7.58718 29.5051 7.54322C29.4611 7.49927 29.4015 7.47458 29.3393 7.47458ZM30.0179 7.47458C29.9557 7.47458 29.8961 7.49927 29.8521 7.54322C29.8082 7.58718 29.7835 7.64679 29.7835 7.70895V8.03951C29.7835 8.10167 29.8082 8.16129 29.8521 8.20524C29.8961 8.2492 29.9557 8.27389 30.0179 8.27389C30.08 8.27389 30.1396 8.2492 30.1836 8.20524C30.2275 8.16129 30.2522 8.10167 30.2522 8.03951V7.70895C30.2522 7.64679 30.2275 7.58718 30.1836 7.54322C30.1396 7.49927 30.08 7.47458 30.0179 7.47458ZM30.6964 7.47458C30.6342 7.47458 30.5746 7.49927 30.5307 7.54322C30.4867 7.58718 30.462 7.64679 30.462 7.70895V8.03951C30.462 8.10167 30.4867 8.16129 30.5307 8.20524C30.5746 8.2492 30.6342 8.27389 30.6964 8.27389C30.7586 8.27389 30.8182 8.2492 30.8621 8.20524C30.9061 8.16129 30.9308 8.10167 30.9308 8.03951V7.70895C30.9308 7.64679 30.9061 7.58718 30.8621 7.54322C30.8182 7.49927 30.7586 7.47458 30.6964 7.47458ZM27.3037 8.53833C27.2416 8.53833 27.1819 8.56302 27.138 8.60697C27.094 8.65093 27.0693 8.71054 27.0693 8.7727V9.1033C27.0693 9.16546 27.094 9.22507 27.138 9.26902C27.1819 9.31298 27.2416 9.33767 27.3037 9.33767C27.3659 9.33767 27.4255 9.31298 27.4694 9.26902C27.5134 9.22507 27.5381 9.16546 27.5381 9.1033V8.7727C27.5381 8.71054 27.5134 8.65093 27.4694 8.60697C27.4255 8.56302 27.3659 8.53833 27.3037 8.53833ZM27.9822 8.53833C27.9201 8.53833 27.8605 8.56302 27.8165 8.60697C27.7726 8.65093 27.7479 8.71054 27.7479 8.7727V9.1033C27.7479 9.16546 27.7726 9.22507 27.8165 9.26902C27.8605 9.31298 27.9201 9.33767 27.9822 9.33767C28.0444 9.33767 28.104 9.31298 28.148 9.26902C28.1919 9.22507 28.2166 9.16546 28.2166 9.1033V8.7727C28.2166 8.71054 28.1919 8.65093 28.148 8.60697C28.104 8.56302 28.0444 8.53833 27.9822 8.53833ZM28.6608 8.53833C28.5986 8.53833 28.539 8.56302 28.495 8.60697C28.4511 8.65093 28.4264 8.71054 28.4264 8.7727V9.1033C28.4264 9.16546 28.4511 9.22507 28.495 9.26902C28.539 9.31298 28.5986 9.33767 28.6608 9.33767C28.7229 9.33767 28.7825 9.31298 28.8265 9.26902C28.8705 9.22507 28.8951 9.16546 28.8951 9.1033V8.7727C28.8951 8.71054 28.8705 8.65093 28.8265 8.60697C28.7825 8.56302 28.7229 8.53833 28.6608 8.53833ZM29.3393 8.53833C29.2772 8.53833 29.2176 8.56302 29.1736 8.60697C29.1297 8.65093 29.105 8.71054 29.105 8.7727V9.1033C29.105 9.16546 29.1297 9.22507 29.1736 9.26902C29.2176 9.31298 29.2772 9.33767 29.3393 9.33767C29.4015 9.33767 29.4611 9.31298 29.5051 9.26902C29.549 9.22507 29.5737 9.16546 29.5737 9.1033V8.7727C29.5737 8.71054 29.549 8.65093 29.5051 8.60697C29.4611 8.56302 29.4015 8.53833 29.3393 8.53833ZM30.0179 8.53833C29.9557 8.53833 29.8961 8.56302 29.8521 8.60697C29.8082 8.65093 29.7835 8.71054 29.7835 8.7727V9.1033C29.7835 9.16546 29.8082 9.22507 29.8521 9.26902C29.8961 9.31298 29.9557 9.33767 30.0179 9.33767C30.08 9.33767 30.1396 9.31298 30.1836 9.26902C30.2275 9.22507 30.2522 9.16546 30.2522 9.1033V8.7727C30.2522 8.71054 30.2275 8.65093 30.1836 8.60697C30.1396 8.56302 30.08 8.53833 30.0179 8.53833ZM30.6964 8.53833C30.6342 8.53833 30.5746 8.56302 30.5307 8.60697C30.4867 8.65093 30.462 8.71054 30.462 8.7727V9.1033C30.462 9.16546 30.4867 9.22507 30.5307 9.26902C30.5746 9.31298 30.6342 9.33767 30.6964 9.33767C30.7586 9.33767 30.8182 9.31298 30.8621 9.26902C30.9061 9.22507 30.9308 9.16546 30.9308 9.1033V8.7727C30.9308 8.71054 30.9061 8.65093 30.8621 8.60697C30.8182 8.56302 30.7586 8.53833 30.6964 8.53833ZM27.3037 9.60211C27.2416 9.60211 27.1819 9.6268 27.138 9.67076C27.094 9.71471 27.0693 9.77432 27.0693 9.83648V10.167C27.0693 10.2292 27.094 10.2888 27.138 10.3328C27.1819 10.3767 27.2416 10.4014 27.3037 10.4014C27.3659 10.4014 27.4255 10.3767 27.4694 10.3328C27.5134 10.2888 27.5381 10.2292 27.5381 10.167V9.83648C27.5381 9.77432 27.5134 9.71471 27.4694 9.67076C27.4255 9.6268 27.3659 9.60211 27.3037 9.60211ZM27.9822 9.60211C27.9201 9.60211 27.8605 9.6268 27.8165 9.67076C27.7726 9.71471 27.7479 9.77432 27.7479 9.83648V10.167C27.7479 10.2292 27.7726 10.2888 27.8165 10.3328C27.8605 10.3767 27.9201 10.4014 27.9822 10.4014C28.0444 10.4014 28.104 10.3767 28.148 10.3328C28.1919 10.2888 28.2166 10.2292 28.2166 10.167V9.83648C28.2166 9.77432 28.1919 9.71471 28.148 9.67076C28.104 9.6268 28.0444 9.60211 27.9822 9.60211ZM28.6608 9.60211C28.5986 9.60211 28.539 9.6268 28.495 9.67076C28.4511 9.71471 28.4264 9.77432 28.4264 9.83648V10.167C28.4264 10.2292 28.4511 10.2888 28.495 10.3328C28.539 10.3767 28.5986 10.4014 28.6608 10.4014C28.7229 10.4014 28.7825 10.3767 28.8265 10.3328C28.8705 10.2888 28.8951 10.2292 28.8951 10.167V9.83648C28.8951 9.77432 28.8705 9.71471 28.8265 9.67076C28.7825 9.6268 28.7229 9.60211 28.6608 9.60211ZM29.3393 9.60211C29.2772 9.60211 29.2176 9.6268 29.1736 9.67076C29.1297 9.71471 29.105 9.77432 29.105 9.83648V10.167C29.105 10.2292 29.1297 10.2888 29.1736 10.3328C29.2176 10.3767 29.2772 10.4014 29.3393 10.4014C29.4015 10.4014 29.4611 10.3767 29.5051 10.3328C29.549 10.2888 29.5737 10.2292 29.5737 10.167V9.83648C29.5737 9.77432 29.549 9.71471 29.5051 9.67076C29.4611 9.6268 29.4015 9.60211 29.3393 9.60211ZM30.0179 9.60211C29.9557 9.60211 29.8961 9.6268 29.8521 9.67076C29.8082 9.71471 29.7835 9.77432 29.7835 9.83648V10.167C29.7835 10.2292 29.8082 10.2888 29.8521 10.3328C29.8961 10.3767 29.9557 10.4014 30.0179 10.4014C30.08 10.4014 30.1396 10.3767 30.1836 10.3328C30.2275 10.2888 30.2522 10.2292 30.2522 10.167V9.83648C30.2522 9.77432 30.2275 9.71471 30.1836 9.67076C30.1396 9.6268 30.08 9.60211 30.0179 9.60211ZM30.6964 9.60211C30.6342 9.60211 30.5746 9.6268 30.5307 9.67076C30.4867 9.71471 30.462 9.77432 30.462 9.83648V10.167C30.462 10.2292 30.4867 10.2888 30.5307 10.3328C30.5746 10.3767 30.6342 10.4014 30.6964 10.4014C30.7586 10.4014 30.8182 10.3767 30.8621 10.3328C30.9061 10.2888 30.9308 10.2292 30.9308 10.167V9.83648C30.9308 9.77432 30.9061 9.71471 30.8621 9.67076C30.8182 9.6268 30.7586 9.60211 30.6964 9.60211ZM27.3037 10.6659C27.2416 10.6659 27.1819 10.6906 27.138 10.7345C27.094 10.7785 27.0693 10.8381 27.0693 10.9002V11.2308C27.0693 11.293 27.094 11.3526 27.138 11.3966C27.1819 11.4405 27.2416 11.4652 27.3037 11.4652C27.3659 11.4652 27.4255 11.4405 27.4694 11.3966C27.5134 11.3526 27.5381 11.293 27.5381 11.2308V10.9002C27.5381 10.8381 27.5134 10.7785 27.4694 10.7345C27.4255 10.6906 27.3659 10.6659 27.3037 10.6659ZM27.9822 10.6659C27.9201 10.6659 27.8605 10.6906 27.8165 10.7345C27.7726 10.7785 27.7479 10.8381 27.7479 10.9002V11.2308C27.7479 11.293 27.7726 11.3526 27.8165 11.3966C27.8605 11.4405 27.9201 11.4652 27.9822 11.4652C28.0444 11.4652 28.104 11.4405 28.148 11.3966C28.1919 11.3526 28.2166 11.293 28.2166 11.2308V10.9002C28.2166 10.8381 28.1919 10.7785 28.148 10.7345C28.104 10.6906 28.0444 10.6659 27.9822 10.6659ZM28.6608 10.6659C28.5986 10.6659 28.539 10.6906 28.495 10.7345C28.4511 10.7785 28.4264 10.8381 28.4264 10.9002V11.2308C28.4264 11.293 28.4511 11.3526 28.495 11.3966C28.539 11.4405 28.5986 11.4652 28.6608 11.4652C28.7229 11.4652 28.7825 11.4405 28.8265 11.3966C28.8705 11.3526 28.8951 11.293 28.8951 11.2308V10.9002C28.8951 10.8381 28.8705 10.7785 28.8265 10.7345C28.7825 10.6906 28.7229 10.6659 28.6608 10.6659ZM29.3393 10.6659C29.2772 10.6659 29.2176 10.6906 29.1736 10.7345C29.1297 10.7785 29.105 10.8381 29.105 10.9002V11.2308C29.105 11.293 29.1297 11.3526 29.1736 11.3966C29.2176 11.4405 29.2772 11.4652 29.3393 11.4652C29.4015 11.4652 29.4611 11.4405 29.5051 11.3966C29.549 11.3526 29.5737 11.293 29.5737 11.2308V10.9002C29.5737 10.8381 29.549 10.7785 29.5051 10.7345C29.4611 10.6906 29.4015 10.6659 29.3393 10.6659ZM30.0179 10.6659C29.9557 10.6659 29.8961 10.6906 29.8521 10.7345C29.8082 10.7785 29.7835 10.8381 29.7835 10.9002V11.2308C29.7835 11.293 29.8082 11.3526 29.8521 11.3966C29.8961 11.4405 29.9557 11.4652 30.0179 11.4652C30.08 11.4652 30.1396 11.4405 30.1836 11.3966C30.2275 11.3526 30.2522 11.293 30.2522 11.2308V10.9002C30.2522 10.8381 30.2275 10.7785 30.1836 10.7345C30.1396 10.6906 30.08 10.6659 30.0179 10.6659ZM30.6964 10.6659C30.6342 10.6659 30.5746 10.6906 30.5307 10.7345C30.4867 10.7785 30.462 10.8381 30.462 10.9002V11.2308C30.462 11.293 30.4867 11.3526 30.5307 11.3966C30.5746 11.4405 30.6342 11.4652 30.6964 11.4652C30.7586 11.4652 30.8182 11.4405 30.8621 11.3966C30.9061 11.3526 30.9308 11.293 30.9308 11.2308V10.9002C30.9308 10.8381 30.9061 10.7785 30.8621 10.7345C30.8182 10.6906 30.7586 10.6659 30.6964 10.6659ZM27.3037 11.7296C27.2416 11.7296 27.1819 11.7543 27.138 11.7983C27.094 11.8422 27.0693 11.9018 27.0693 11.964V12.2946C27.0693 12.3567 27.094 12.4164 27.138 12.4603C27.1819 12.5043 27.2416 12.529 27.3037 12.529C27.3659 12.529 27.4255 12.5043 27.4694 12.4603C27.5134 12.4164 27.5381 12.3567 27.5381 12.2946V11.964C27.5381 11.9018 27.5134 11.8422 27.4694 11.7983C27.4255 11.7543 27.3659 11.7296 27.3037 11.7296ZM30.6964 11.7296C30.6342 11.7296 30.5746 11.7543 30.5307 11.7983C30.4867 11.8422 30.462 11.9018 30.462 11.964V12.2946C30.462 12.3567 30.4867 12.4164 30.5307 12.4603C30.5746 12.5043 30.6342 12.529 30.6964 12.529C30.7586 12.529 30.8182 12.5043 30.8621 12.4603C30.9061 12.4164 30.9308 12.3567 30.9308 12.2946V11.964C30.9308 11.9018 30.9061 11.8422 30.8621 11.7983C30.8182 11.7543 30.7586 11.7296 30.6964 11.7296Z" fill="#9EA7AF"/>
<path d="M30.1594 15.0572C30.1594 15.1554 30.079 15.2357 29.9808 15.2357H28.0185C27.9202 15.2357 27.8398 15.1554 27.8398 15.0572V11.9562C27.8398 11.8581 27.9202 11.7777 28.0185 11.7777H29.9808C30.079 11.7777 30.1594 11.8581 30.1594 11.9562V15.0572Z" fill="#7FDEE9"/>
<path d="M28.7656 11.7778H29.2344V14.9635H28.7656V11.7778Z" fill="#9EA7AF"/>
<path d="M32.0022 15.6063C32.0022 15.6939 31.9304 15.7656 31.8428 15.7656H26.1565C26.0688 15.7656 25.9971 15.6939 25.9971 15.6063V15.1224C25.9971 15.0348 26.0688 14.9631 26.1565 14.9631H31.8428C31.9304 14.9631 32.0022 15.0348 32.0022 15.1224V15.6063Z" fill="#C5CCD3"/>
<path d="M26.9912 15.6063V15.1224C26.9912 15.0348 27.063 14.9631 27.1506 14.9631H26.1565C26.0688 14.9631 25.9971 15.0348 25.9971 15.1224V15.6063C25.9971 15.6939 26.0688 15.7656 26.1565 15.7656H27.1506C27.063 15.7656 26.9912 15.6939 26.9912 15.6063Z" fill="black"/>
<path d="M35.955 16H22.0449C21.9828 16 21.9231 15.9753 21.8792 15.9314C21.8352 15.8874 21.8105 15.8278 21.8105 15.7656C21.8105 15.7035 21.8352 15.6439 21.8792 15.5999C21.9231 15.5559 21.9828 15.5312 22.0449 15.5312H35.955C36.0171 15.5312 36.0768 15.5559 36.1207 15.5999C36.1647 15.6439 36.1894 15.7035 36.1894 15.7656C36.1894 15.8278 36.1647 15.8874 36.1207 15.9314C36.0768 15.9753 36.0171 16 35.955 16Z" fill="#9EA7AF"/>
</g>
<g clip-path="url(#clip2_1_93)">
<path d="M0.118359 10.2191H15.6496V15.7656H0.115234L0.118359 10.2191Z" fill="#5ED8F6"/>
<path d="M6.66565 13.2011L5.52258 6.24891C5.4734 5.94991 5.01087 6.02591 5.06005 6.32497L6.20312 13.2772C6.25133 13.5704 6.71527 13.5028 6.66565 13.2011Z" fill="#E1F3FF"/>
<path d="M0.115234 12.6953C1.06314 11.4041 2.88395 10.8313 4.40139 11.3467C6.19348 11.9555 7.47555 13.8655 9.36611 13.9587C10.2424 14.0019 11.0778 13.6325 11.906 13.3431C12.7341 13.0536 14.2578 12.5603 15.6447 13.7242V15.7656H0.115234V12.6953Z" fill="#FFD686"/>
<path d="M3.15101 11.3467C4.9431 11.9554 6.22516 13.8654 8.11573 13.9587C8.38079 13.9717 8.6421 13.9469 8.90063 13.8981C7.25579 13.5528 6.04226 11.9042 4.40101 11.3467C3.82507 11.151 3.20548 11.1125 2.60645 11.2102C2.79082 11.2413 2.97304 11.2862 3.15101 11.3467ZM12.9943 13.0442L13.0081 13.0469C13.8161 13.2063 14.3943 13.9221 14.3943 14.7456V15.7656H15.6443V13.7242C14.7425 12.9674 13.7829 12.9113 12.9943 13.0442Z" fill="#F7CA6D"/>
<path d="M10.9117 6.98259C10.8147 6.3925 10.2577 5.99281 9.66757 6.08981C9.07747 6.18684 8.67778 6.74384 8.77479 7.33393C8.67775 6.74384 8.12075 6.34415 7.53066 6.44115C6.94057 6.53818 6.54088 7.09518 6.63788 7.68528C6.54085 7.09518 5.98385 6.6955 5.39375 6.7925C4.80366 6.8895 4.40397 7.44653 4.50097 8.03662C4.40394 7.44653 3.84694 7.04684 3.25685 7.14384C2.66675 7.24084 2.26707 7.79787 2.36407 8.38797C2.26703 7.79787 1.71003 7.39818 1.11994 7.49518C0.529847 7.59222 0.13016 8.14922 0.22716 8.73931L0.19091 8.74528C-0.29559 5.78531 1.70941 2.99125 4.66938 2.50456C7.62935 2.01787 10.4234 4.02287 10.9101 6.98284L10.9117 6.98259Z" fill="#FE75A7"/>
<path d="M10.912 6.98252C10.9081 6.95923 10.9034 6.93607 10.898 6.91308C10.9021 6.9363 10.9065 6.95942 10.9104 6.98277L10.912 6.98252ZM4.93164 2.46802C7.00214 2.70902 8.78673 4.13439 9.45452 6.14755C9.5235 6.12109 9.59499 6.10173 9.66789 6.08977C10.2345 5.99661 10.7703 6.36155 10.898 6.91311C10.3946 4.07855 7.76955 2.14005 4.93164 2.46802Z" fill="#FE5995"/>
<path d="M4.6716 2.50419L4.67007 2.5044C2.93704 2.78962 1.9037 5.32181 2.3177 8.20565C2.33849 8.26493 2.35411 8.3259 2.36438 8.38787C2.26735 7.79778 2.66707 7.27203 3.25717 7.175C3.84726 7.07797 4.40426 7.44644 4.50126 8.03653C4.40423 7.44644 4.80395 6.88944 5.39404 6.7924C5.98413 6.69537 6.54113 7.09509 6.63813 7.68519C6.5411 7.09509 6.94082 6.56934 7.53092 6.47231C8.0496 6.38703 8.54257 6.65437 8.72023 7.12859C8.18373 4.27684 6.39967 2.22119 4.6716 2.50419Z" fill="#E1F3FF"/>
<path d="M4.69984 2.49987L4.69027 2.50131C4.11146 2.60696 4.02365 5.01746 4.48812 7.91962C4.45787 7.37459 4.84268 6.88306 5.39359 6.79246C5.98368 6.69543 6.54068 7.09515 6.63768 7.68524C6.63165 7.64849 6.62749 7.61145 6.62521 7.57428C6.13674 4.67656 5.28237 2.41981 4.69984 2.49987Z" fill="#FE75A7"/>
<path d="M10.9115 6.98249C10.9075 6.95921 10.9029 6.93607 10.8975 6.91309C10.9016 6.9363 10.906 6.95943 10.9098 6.98277L10.9115 6.98249Z" fill="#5ED8F6"/>
<path d="M13.2865 3.66112C13.8739 3.66112 14.3501 3.18494 14.3501 2.59753C14.3501 2.01012 13.8739 1.53394 13.2865 1.53394C12.6991 1.53394 12.2229 2.01012 12.2229 2.59753C12.2229 3.18494 12.6991 3.66112 13.2865 3.66112Z" fill="#FFD500"/>
<path d="M13.2861 1.53394C13.0615 1.53365 12.8426 1.60482 12.6611 1.73716C12.9269 1.93053 13.0997 2.24375 13.0997 2.59753C13.0997 2.95131 12.9269 3.26453 12.6611 3.45791C12.8426 3.59024 13.0615 3.66141 13.2861 3.66112C13.8735 3.66112 14.3497 3.18494 14.3497 2.59753C14.3497 2.01012 13.8735 1.53394 13.2861 1.53394Z" fill="#FFC400"/>
<path d="M13.2861 0C13.2239 0 13.1643 0.024693 13.1203 0.0686468C13.0764 0.112601 13.0517 0.172215 13.0517 0.234375V0.789312C13.0517 0.851473 13.0764 0.911087 13.1203 0.955041C13.1643 0.998994 13.2239 1.02369 13.2861 1.02369C13.3482 1.02369 13.4078 0.998994 13.4518 0.955041C13.4958 0.911087 13.5204 0.851473 13.5204 0.789312V0.234375C13.5204 0.172215 13.4958 0.112601 13.4518 0.0686468C13.4078 0.024693 13.3482 0 13.2861 0ZM13.2861 4.17144C13.2239 4.17144 13.1643 4.19613 13.1203 4.24008C13.0764 4.28404 13.0517 4.34365 13.0517 4.40581V4.96075C13.0517 5.02291 13.0764 5.08252 13.1203 5.12648C13.1643 5.17043 13.2239 5.19513 13.2861 5.19513C13.3482 5.19513 13.4078 5.17043 13.4518 5.12648C13.4958 5.08252 13.5204 5.02291 13.5204 4.96075V4.40581C13.5204 4.34365 13.4958 4.28404 13.4518 4.24008C13.4078 4.19613 13.3482 4.17144 13.2861 4.17144ZM14.5647 1.55331C14.5955 1.55335 14.626 1.54731 14.6544 1.53553C14.6828 1.52375 14.7087 1.50646 14.7304 1.48466L15.1228 1.09225C15.1668 1.0483 15.1915 0.988687 15.1915 0.926531C15.1915 0.864376 15.1668 0.804766 15.1228 0.760813C15.0789 0.716864 15.0193 0.692175 14.9571 0.692175C14.8949 0.692175 14.8353 0.716864 14.7914 0.760813L14.3989 1.15322C14.3662 1.186 14.3439 1.22776 14.3348 1.27323C14.3258 1.31869 14.3304 1.36582 14.3482 1.40864C14.3659 1.45147 14.3959 1.48807 14.4345 1.51382C14.473 1.53957 14.5183 1.55332 14.5647 1.55331ZM11.8417 3.71047L11.4493 4.10288C11.4165 4.13565 11.3942 4.17741 11.3852 4.22287C11.3761 4.26834 11.3808 4.31546 11.3985 4.35828C11.4162 4.40111 11.4463 4.43771 11.4848 4.46346C11.5233 4.48922 11.5687 4.50296 11.615 4.50297C11.6458 4.50301 11.6763 4.49697 11.7047 4.48518C11.7332 4.4734 11.759 4.45611 11.7807 4.43431L12.1731 4.04191C12.2171 3.99795 12.2418 3.93834 12.2418 3.87619C12.2418 3.81403 12.2171 3.75442 12.1731 3.71047C12.1292 3.66652 12.0696 3.64183 12.0074 3.64183C11.9453 3.64183 11.8856 3.66652 11.8417 3.71047ZM15.6493 2.36319H15.0943C15.0322 2.36319 14.9725 2.38788 14.9286 2.43183C14.8846 2.47579 14.8599 2.5354 14.8599 2.59756C14.8599 2.65972 14.8846 2.71934 14.9286 2.76329C14.9725 2.80724 15.0322 2.83194 15.0943 2.83194H15.6493C15.7114 2.83194 15.771 2.80724 15.815 2.76329C15.8589 2.71934 15.8836 2.65972 15.8836 2.59756C15.8836 2.5354 15.8589 2.47579 15.815 2.43183C15.771 2.38788 15.7114 2.36319 15.6493 2.36319ZM11.7122 2.59756C11.7122 2.5354 11.6875 2.47579 11.6435 2.43183C11.5996 2.38788 11.5399 2.36319 11.4778 2.36319H10.9229C10.8607 2.36319 10.8011 2.38788 10.7571 2.43183C10.7132 2.47579 10.6885 2.5354 10.6885 2.59756C10.6885 2.65972 10.7132 2.71934 10.7571 2.76329C10.8011 2.80724 10.8607 2.83194 10.9229 2.83194H11.4778C11.5399 2.83194 11.5996 2.80724 11.6435 2.76329C11.6875 2.71934 11.7122 2.65972 11.7122 2.59756ZM14.7304 3.71047C14.6389 3.61894 14.4905 3.61894 14.399 3.71047C14.3074 3.802 14.3074 3.95038 14.399 4.04191L14.7914 4.43431C14.8371 4.48009 14.8971 4.50297 14.9571 4.50297C15.0171 4.50297 15.0771 4.48009 15.1228 4.43431C15.1668 4.39036 15.1915 4.33075 15.1915 4.26859C15.1915 4.20644 15.1668 4.14683 15.1228 4.10288L14.7304 3.71047ZM11.7808 0.760813C11.759 0.739044 11.7332 0.721776 11.7047 0.709995C11.6763 0.698213 11.6458 0.692149 11.615 0.692149C11.5843 0.692149 11.5538 0.698213 11.5253 0.709995C11.4969 0.721776 11.4711 0.739044 11.4493 0.760813C11.4054 0.804766 11.3807 0.864376 11.3807 0.926531C11.3807 0.988687 11.4054 1.0483 11.4493 1.09225L11.8417 1.48466C11.8875 1.53044 11.9475 1.55331 12.0074 1.55331C12.0674 1.55331 12.1274 1.53044 12.1732 1.48466C12.2171 1.4407 12.2418 1.38109 12.2418 1.31894C12.2418 1.25678 12.2171 1.19717 12.1732 1.15322L11.7808 0.760813Z" fill="#FFF1AB"/>
<path d="M0.954922 13.77C1.25655 13.77 1.25705 13.3013 0.954922 13.3013C0.653297 13.3013 0.652797 13.77 0.954922 13.77ZM4.19105 15.0783C4.49267 15.0783 4.49317 14.6096 4.19105 14.6096C3.88945 14.6096 3.88895 15.0783 4.19105 15.0783ZM5.00645 13.3054C5.30808 13.3054 5.30858 12.8367 5.00645 12.8367C4.70483 12.8367 4.70433 13.3054 5.00645 13.3054ZM11.2179 16C11.5195 16 11.52 15.5312 11.2179 15.5312C10.9163 15.5312 10.9158 16 11.2179 16ZM13.9975 14.6966C14.2991 14.6966 14.2996 14.2278 13.9975 14.2278C13.6959 14.2278 13.6954 14.6966 13.9975 14.6966Z" fill="#E7A661"/>
<path d="M10.776 12.0698H8.97239C8.66936 12.0698 8.66936 12.5386 8.97239 12.5386H10.776C11.0791 12.5386 11.0791 12.0698 10.776 12.0698ZM14.3499 11.1115H10.3188C10.0157 11.1115 10.0157 11.5802 10.3188 11.5802H14.3499C14.653 11.5802 14.653 11.1115 14.3499 11.1115Z" fill="#26C8F0"/>
</g>
<defs>
<clipPath id="clip0_1_93">
<rect width="16" height="16" fill="white" transform="translate(42)"/>
</clipPath>
<clipPath id="clip1_1_93">
<rect width="16" height="16" fill="white" transform="translate(21)"/>
</clipPath>
<clipPath id="clip2_1_93">
<rect width="16" height="16" fill="white"/>
</clipPath>
</defs>
</svg>
